<svg width="30" height="30" viewBox="0 0 30 30" fill="none" xmlns="http://www.w3.org/2000/svg">
<path d="M15 30C23.2843 30 30 23.2843 30 15C30 6.71573 23.2843 0 15 0C6.71573 0 0 6.71573 0 15C0 23.2843 6.71573 30 15 30Z" fill="#E9AF5A"/>
<path d="M20.9993 17.9467V20.304C20.9994 20.4728 20.9355 20.6353 20.8204 20.7588C20.7053 20.8823 20.5477 20.9575 20.3794 20.9693C20.0881 20.9893 19.8501 21 19.6661 21C13.7751 21 9 16.2247 9 10.3333C9 10.1493 9.01 9.91133 9.03066 9.62C9.04248 9.45163 9.11771 9.29401 9.24119 9.17894C9.36466 9.06387 9.52719 8.99992 9.69596 9H12.0532C12.1359 8.99992 12.2156 9.03057 12.277 9.08601C12.3383 9.14145 12.3769 9.21772 12.3851 9.3C12.4005 9.45333 12.4145 9.57533 12.4278 9.668C12.5603 10.5926 12.8318 11.4919 13.2331 12.3353C13.2964 12.4687 13.2551 12.628 13.1351 12.7133L11.6965 13.7413C12.5761 15.791 14.2094 17.4244 16.2589 18.304L17.2855 16.868C17.3275 16.8093 17.3887 16.7673 17.4585 16.7491C17.5283 16.7309 17.6023 16.7379 17.6675 16.7687C18.5108 17.1693 19.4098 17.4401 20.334 17.572C20.4267 17.5853 20.5487 17.5993 20.7007 17.6147C20.7828 17.6231 20.8589 17.6617 20.9142 17.7231C20.9695 17.7844 20.9994 17.8641 20.9993 17.9467Z" fill="white"/>
</svg>
