<svg width="86" height="36" viewBox="0 0 86 36" fill="none" xmlns="http://www.w3.org/2000/svg">
<path d="M31.3543 23.477H7.01065V23.2157C8.04376 23.2157 8.87502 22.3845 8.87502 21.3514V2.82641C8.87502 1.79329 8.04376 0.962045 7.01065 0.962045V0.700798H14.6581V0.902668C13.8388 0.902668 13.1856 1.56767 13.1856 2.38704V22.9545H17.1875V2.37517C17.1875 1.55579 16.5225 0.890798 15.715 0.890798H15.5012V0.677048H22.6737V0.902668C21.7594 0.902668 21.0231 1.63892 21.0231 2.55329V22.9545H25.2031V2.55329C25.2031 1.63892 24.4669 0.902668 23.5525 0.902668H23.505V0.688923H31.378V0.950169C30.3449 0.950169 29.5137 1.78142 29.5137 2.81454V21.4463C29.5137 22.4795 30.3449 23.192 31.378 23.192V23.477H31.3543Z" fill="white"/>
<path d="M64.5567 0.687973V0.961095C63.5236 0.961095 62.6923 1.79234 62.6923 2.82546V21.3385C62.6923 22.3717 63.5236 23.2029 64.5567 23.2029V23.476H56.5173V23.2029C57.5741 23.2029 58.4291 22.3479 58.4291 21.291V1.21047H54.5108V16.9448C54.5108 19.3198 54.2612 21.0654 53.7505 22.1579C53.2399 23.2623 52.4446 23.8085 51.34 23.8085C50.6749 23.8085 50.0695 23.5948 49.5111 23.1554C49.0483 22.6923 48.775 22.0629 48.6802 21.291C48.5613 20.7092 48.9767 18.8804 48.9531 16.5648L51.2571 17.8829C51.34 19.106 49.6655 22.2766 49.8199 22.5973C50.0577 23.1198 50.5442 23.381 51.3044 23.381C52.0287 23.381 52.5512 23.096 52.8719 22.5141C53.0736 22.1342 53.2162 21.7067 53.3114 21.2079C53.3114 21.0892 53.3351 20.816 53.3943 20.3766C53.4535 19.9373 53.4777 19.581 53.4777 19.2841C53.5014 18.7617 53.5251 18.2391 53.5251 17.7167V2.82546C53.5251 1.79234 52.6937 0.961095 51.6606 0.961095V0.699848H64.5567V0.687973Z" fill="white"/>
<path d="M4.10011 12.6291C4.36583 11.5126 3.6761 10.3921 2.5596 10.1264C1.44311 9.86073 0.322625 10.5504 0.0569266 11.6669C-0.208768 12.7834 0.48094 13.9039 1.59744 14.1696C2.71393 14.4353 3.83442 13.7456 4.10011 12.6291Z" fill="white"/>
<path d="M85.4562 12.6259C85.72 11.509 85.0284 10.3897 83.9115 10.1259C82.7945 9.86217 81.6752 10.5538 81.4114 11.6708C81.1475 12.7878 81.8391 13.9071 82.9561 14.1708C84.073 14.4345 85.1923 13.7429 85.4562 12.6259Z" fill="white"/>
<path d="M77.7025 13.8818L74.6742 15.7818C74.6505 17.4443 76.4794 21.8618 76.4794 21.8618C75.7073 23.3106 73.012 23.5362 72.3707 23.5362C71.4683 23.5362 70.9098 23.2155 70.6725 22.5743C70.3518 21.8499 70.1974 19.8787 70.1974 17.1237V14.4993L74.9238 12.0412C77.4055 10.7469 78.7829 8.00375 78.296 5.24875C78.296 5.23686 78.296 5.22497 78.2841 5.21313C78.106 4.08499 77.7735 3.09937 77.287 2.25624C76.3605 0.748122 74.7457 0 72.4654 0C69.3069 0 67.3477 1.35375 66.5993 4.04936C66.3383 4.95185 66.1484 6.00873 66.0295 7.21999C65.9106 8.44309 65.8513 10.1294 65.8513 12.3025C65.8513 15.1406 65.9939 17.2899 66.2668 18.7387C66.5401 20.1874 67.0152 21.3274 67.6798 22.1705C68.7489 23.4174 70.2329 24.0349 72.121 24.0349C75.28 24.0349 77.2392 22.788 77.9876 20.2943C77.9758 20.3062 77.3581 15.6987 77.7025 13.8818ZM70.6251 1.79312C70.8861 0.748123 71.4565 0.225624 72.3233 0.225624C72.9879 0.225624 73.4511 0.498747 73.7126 1.03312C73.9736 1.5675 74.128 2.56499 74.1872 4.01373C74.2706 5.90187 74.1754 8.25309 74.1754 8.87059V8.26498C74.1754 8.28871 74.1754 8.32434 74.1754 8.35996C74.1162 10.3787 73.1305 12.3143 71.3731 13.3L70.1856 13.9768C70.1974 10.9012 70.34 3.27749 70.6251 1.79312Z" fill="white"/>
<path d="M47.0423 23.1797C45.9853 23.1797 45.1422 22.3247 45.1422 21.2797L45.1659 7.62345C45.1897 7.10097 45.1778 6.48348 45.1303 5.93722C45.1303 5.8422 45.1184 5.75907 45.1066 5.6641H45.0947C45.0828 5.54535 45.0591 5.42659 45.0353 5.31973C44.7622 3.87096 44.2872 2.73097 43.6222 1.88785C42.5535 0.640973 41.0691 0.0234756 39.181 0.0234756C36.0222 0.0234756 34.0629 1.27035 33.3147 3.76409C33.3147 3.76409 33.9322 8.37158 33.5997 10.1884L36.6279 8.28845C36.6516 6.62596 34.8228 2.20847 34.8228 2.20847C35.5947 0.759725 38.2904 0.5341 38.9316 0.5341C39.8341 0.5341 40.3922 0.854723 40.6297 1.49597C40.9147 2.14909 41.0691 3.81159 41.1047 6.13906C41.0572 6.66158 40.986 7.07719 40.8197 7.35032C40.5228 7.83722 40.0597 8.33596 39.4303 8.68033L37.1741 9.90343C35.5472 10.7466 34.3716 11.7559 33.6354 12.9434C32.8991 14.1309 32.531 15.6272 32.531 17.4203C32.531 21.7428 34.1341 23.904 37.3522 23.904C38.516 23.904 39.371 23.6903 39.9172 23.2509C40.4635 22.8115 40.9266 22.004 41.3066 20.8165V21.1609C41.3066 21.7072 41.3897 22.1584 41.5678 22.4909C41.5797 22.5265 41.6034 22.5503 41.6272 22.5859C41.9716 23.1678 42.6247 23.5121 43.3016 23.5121H45.4509C45.4985 23.5121 45.5459 23.5121 45.5816 23.5121H47.0541V23.1797H47.0423ZM41.081 10.3903C41.081 12.9791 41.0335 15.2115 40.9503 17.0641C40.891 19.3203 40.6891 20.9234 40.3447 21.8615C40.2022 22.289 39.9647 22.6571 39.6322 22.954C39.2997 23.2628 38.9554 23.4053 38.6109 23.4053C38.0291 23.4053 37.6135 22.9778 37.3522 22.1228C37.0672 21.3034 36.9128 19.9615 36.9128 18.0972C36.9128 15.5678 37.0554 13.5966 37.3522 12.1953C37.471 11.5541 37.6847 11.0197 38.0053 10.5922C38.326 10.1647 38.8366 9.71343 39.5253 9.21469C40.131 8.82281 40.6535 8.33596 41.0928 7.75409V10.3903H41.081Z" fill="white"/>
<path d="M30.9388 31.4694C31.77 31.4694 32.3282 31.7782 32.6131 32.3838L31.865 32.6569C31.6869 32.3244 31.39 32.1701 30.9625 32.1701C30.4163 32.2294 30.1194 32.6095 30.0838 33.3338C30.1075 34.082 30.4163 34.4738 31.0338 34.5332C31.4494 34.5332 31.7344 34.4025 31.9007 34.1532V33.7138H30.8319V33.0607H32.6488V34.4025C32.3994 34.9251 31.8413 35.1863 30.9982 35.1863C29.8463 35.1388 29.2525 34.5213 29.2169 33.3219C29.2644 32.1463 29.8463 31.5288 30.9388 31.4694ZM34.81 31.4694C35.9263 31.5407 36.52 32.1582 36.5913 33.3576C36.52 34.5213 35.9263 35.1388 34.81 35.2101C33.67 35.1388 33.0763 34.5332 33.005 33.3576C33.0644 32.1345 33.6581 31.5051 34.81 31.4694ZM34.7744 34.5095C35.3681 34.4857 35.665 34.1057 35.6888 33.3457C35.665 32.5976 35.3681 32.1938 34.7863 32.1701C34.1925 32.2057 33.8837 32.5976 33.8481 33.3457C33.8837 34.0938 34.1807 34.4857 34.7744 34.5095ZM38.5269 35.1982C37.6007 35.2101 37.0544 34.8063 36.8881 33.9869L37.6956 33.8445C37.7669 34.3313 38.0282 34.5807 38.515 34.5807C38.8713 34.5688 39.0613 34.4263 39.085 34.1532C39.085 33.9513 38.9544 33.7969 38.705 33.6901C38.4438 33.6069 38.2063 33.5357 37.9806 33.4763C37.3156 33.3338 36.995 32.9895 37.0188 32.4432C37.09 31.8376 37.5294 31.5051 38.3487 31.4576C39.2037 31.4457 39.7025 31.7901 39.8569 32.4669L39.0494 32.6332C38.99 32.2769 38.7762 32.0869 38.3725 32.0869C38.0519 32.0988 37.8856 32.2176 37.8619 32.4313C37.8381 32.6332 38.0519 32.7876 38.5031 32.8944C38.8238 32.9657 39.1088 33.0607 39.3581 33.1913C39.7381 33.3932 39.94 33.6901 39.9519 34.1057C39.9163 34.8182 39.4412 35.1744 38.5269 35.1982ZM43.4312 32.182H42.2675V35.1269H41.4363V32.182H40.2606V31.5051H43.4431V32.182H43.4312ZM44.6781 35.1388H43.8468V31.517H44.6781V35.1388ZM47.9082 31.4694C48.7395 31.4694 49.2975 31.7782 49.5826 32.3838L48.8342 32.6569C48.6561 32.3244 48.3596 32.1701 47.9318 32.1701C47.3857 32.2294 47.0887 32.6095 47.0532 33.3338C47.0768 34.082 47.3857 34.4738 48.0029 34.5332C48.4188 34.5332 48.704 34.4025 48.8697 34.1532V33.7138H47.8011V33.0607H49.6182V34.4025C49.3685 34.9251 48.8105 35.1863 47.9674 35.1863C46.8156 35.1388 46.2218 34.5213 46.1862 33.3219C46.2456 32.1463 46.8275 31.5288 47.9082 31.4694ZM53.2873 35.1151H52.2542L51.3755 33.7257H50.9004V35.1388H50.0814V31.517H51.7317C52.6104 31.5407 53.0737 31.8969 53.1092 32.5976C53.1211 33.2032 52.8245 33.5594 52.2305 33.6782L53.2873 35.1151ZM52.2424 32.6451C52.2661 32.3126 52.0524 32.1463 51.601 32.1582H50.9004V33.12H51.601C52.0406 33.12 52.2542 32.9657 52.2424 32.6451ZM55.2825 31.4694C56.3985 31.5407 56.9925 32.1582 57.0635 33.3576C56.9925 34.5213 56.3985 35.1388 55.2825 35.2101C54.1423 35.1388 53.5488 34.5332 53.4773 33.3576C53.537 32.1345 54.1305 31.5051 55.2825 31.4694ZM55.247 34.5095C55.8405 34.4857 56.1375 34.1057 56.1612 33.3457C56.1375 32.5976 55.8405 32.1938 55.2588 32.1701C54.6648 32.2057 54.3564 32.5976 54.3204 33.3457C54.3441 34.0938 54.653 34.4857 55.247 34.5095ZM59.0705 35.1863C58.0256 35.1863 57.4913 34.6519 57.4794 33.5951V31.517H58.2989V33.5951C58.3107 34.2007 58.5836 34.4976 59.1179 34.5095C59.6285 34.5095 59.89 34.2007 59.89 33.5713V31.5051H60.7213V33.5594C60.7332 34.6401 60.1752 35.1863 59.0705 35.1863ZM64.1295 32.6569C64.1413 33.4526 63.6544 33.8563 62.6923 33.8563H62.0869V35.1388H61.2675V31.517H62.7638C63.6425 31.5407 64.0935 31.9207 64.1295 32.6569ZM63.2745 32.6926C63.2626 32.3482 63.0485 32.1582 62.6213 32.1463H62.0751V33.227H62.6213C63.0485 33.227 63.2626 33.0488 63.2745 32.6926Z" fill="white"/>
<path d="M28.362 35.8278C28.2076 35.8634 28.0532 35.9228 27.8988 35.9347C27.222 36.0297 26.5451 35.9703 25.8801 35.7922C25.5832 35.7091 25.2982 35.6022 25.0013 35.531C24.3482 35.3766 23.7188 35.4597 23.1013 35.6972C22.8995 35.7803 22.6976 35.8753 22.5076 35.9585C22.472 35.9703 22.4363 35.9941 22.4007 35.9941C22.2938 36.0178 22.2345 35.9703 22.2345 35.8515C22.2345 35.6615 22.2345 35.4834 22.2226 35.2934C22.1989 34.7116 22.1751 34.1416 22.1514 33.5597C22.1395 33.2747 22.1395 33.0016 22.1276 32.7166C22.1276 32.6928 22.1157 32.6572 22.1157 32.6097C22.0563 32.6216 21.997 32.6334 21.9376 32.6572C21.7595 32.7285 21.5695 32.8116 21.3913 32.8947C21.3557 32.9066 21.3082 32.9184 21.2726 32.9303C21.2132 32.9541 21.1895 32.9303 21.1895 32.8709C21.1895 32.7166 21.1776 32.5503 21.1776 32.396C21.1776 32.3841 21.1776 32.3722 21.1776 32.3603C21.142 32.2297 21.2132 32.1822 21.3201 32.1466C21.5457 32.0634 21.7595 31.9803 21.9851 31.8972C22.1632 31.8259 22.1751 31.8141 22.1751 31.6359C22.1751 31.3391 22.187 31.0541 22.187 30.7572C22.187 30.686 22.2107 30.6266 22.2107 30.5553C22.2107 30.5078 22.2463 30.496 22.2819 30.496C22.5551 30.4841 22.8282 30.4841 23.1013 30.4722C23.1251 30.7691 23.1488 31.0541 23.1726 31.3509C23.2201 31.3391 23.2676 31.3272 23.3032 31.3035C23.7782 31.0897 24.2532 30.876 24.7282 30.6622C24.7995 30.6266 24.8469 30.6385 24.9063 30.6741C25.0726 30.7809 25.2388 30.8878 25.4051 31.0066C25.9276 31.3628 26.462 31.7191 26.9844 32.0753C27.032 32.111 27.0676 32.1466 27.0795 32.2059C27.1151 32.4078 27.1388 32.5978 27.1151 32.7997C27.1151 32.8235 27.1032 32.8472 27.0913 32.8828C26.9726 32.7997 26.8657 32.7166 26.7469 32.6453C26.6401 32.5741 26.5213 32.5028 26.4145 32.4316L26.3907 32.4434V33.5359C26.3194 33.5122 26.2482 33.5003 26.2007 33.4766C26.1651 33.4647 26.1413 33.4172 26.1294 33.3816C26.1057 33.1203 26.0938 32.8472 26.0819 32.586C26.0819 32.4909 26.0701 32.3841 26.0701 32.2891C26.0701 32.1941 26.0226 32.1347 25.9513 32.0872C25.7613 31.9685 25.5714 31.8497 25.3814 31.731C25.2388 31.6359 25.0845 31.5528 24.9301 31.4578C24.8707 31.4222 24.8232 31.4341 24.7757 31.4578C24.5857 31.541 24.4076 31.6241 24.2176 31.7072C23.8138 31.8853 23.422 32.0753 23.0182 32.2534C22.947 32.2891 22.9232 32.3128 22.9351 32.396C22.9588 32.8947 22.9707 33.4053 22.9945 33.9041C23.0064 34.2009 23.0182 34.4978 23.0301 34.7947C23.0301 34.9016 23.0539 34.9135 23.1488 34.8897C23.517 34.7947 23.897 34.7235 24.2889 34.6997C24.8113 34.6641 25.3101 34.7709 25.7732 34.9965C26.0819 35.1509 26.3907 35.3172 26.6994 35.4716C27.1269 35.6734 27.5901 35.7685 28.0532 35.7685C28.1601 35.7685 28.2669 35.7685 28.3738 35.7685C28.362 35.8041 28.362 35.8159 28.362 35.8278Z" fill="white"/>
<path d="M24.0281 32.7527C24.1351 32.7527 24.2419 32.7527 24.3607 32.7527C24.4675 32.7527 24.515 32.8002 24.515 32.907C24.515 33.0021 24.515 33.097 24.515 33.2039C24.515 33.2752 24.4913 33.3108 24.42 33.3108C24.1944 33.3108 23.9807 33.3227 23.755 33.3108C23.7194 33.3108 23.6719 33.2752 23.6719 33.2514C23.6363 33.1208 23.6006 32.9902 23.5769 32.8596C23.565 32.8002 23.6006 32.7646 23.6838 32.7646C23.7907 32.7527 23.9094 32.7646 24.0281 32.7527Z" fill="white"/>
<path d="M24.0865 33.4415C24.1935 33.4415 24.3003 33.4415 24.4191 33.4415C24.4784 33.4415 24.514 33.4653 24.514 33.5247C24.514 33.6553 24.514 33.7859 24.514 33.9166C24.514 33.9878 24.4784 34.0234 24.4072 34.0234C24.2291 34.0234 24.0391 34.0234 23.8609 34.0234C23.8253 34.0234 23.7778 33.9759 23.7778 33.9522C23.7422 33.8096 23.7184 33.6553 23.6947 33.5009C23.6828 33.4415 23.7066 33.4297 23.766 33.4297C23.8609 33.4415 23.9797 33.4415 24.0865 33.4415Z" fill="white"/>
<path d="M25.4288 33.4415C25.4169 33.5246 25.4169 33.5839 25.405 33.6552C25.3932 33.7383 25.3932 33.8214 25.3813 33.9046C25.3694 34.0233 25.3457 34.0352 25.2269 34.0352C25.1319 34.0352 25.0488 34.0233 24.9538 34.0233C24.8707 34.0233 24.7994 34.0233 24.7163 34.0352C24.6688 34.0352 24.6332 34.0233 24.6332 33.9639C24.6332 33.8096 24.6332 33.6433 24.6451 33.489C24.6451 33.4771 24.6807 33.4415 24.6926 33.4415C24.9301 33.4415 25.1676 33.4415 25.4288 33.4415Z" fill="white"/>
<path d="M25.0251 32.7528C25.1319 32.7528 25.2269 32.7528 25.3338 32.7528C25.4169 32.7528 25.4526 32.7885 25.4526 32.8716C25.4526 32.9903 25.4526 33.109 25.4526 33.2278C25.4526 33.2753 25.4288 33.299 25.3694 33.299C25.1557 33.299 24.9419 33.299 24.7163 33.3109C24.657 33.3109 24.6332 33.2872 24.6332 33.2278C24.6332 33.0972 24.6332 32.9666 24.6332 32.8359C24.6332 32.7766 24.657 32.7528 24.7163 32.7528C24.8232 32.7528 24.9182 32.7528 25.0251 32.7528Z" fill="white"/>
</svg>
