<svg width="108" height="36" viewBox="0 0 108 36" fill="none" xmlns="http://www.w3.org/2000/svg">
<mask id="mask0_6_5483" style="mask-type:luminance" maskUnits="userSpaceOnUse" x="0" y="0" width="108" height="36">
<path d="M107.04 0H0.725159V35.5558H107.04V0Z" fill="white"/>
</mask>
<g mask="url(#mask0_6_5483)">
<path d="M8.13146 4.93114C8.00262 4.93114 7.87619 4.9212 7.75053 4.90843C7.71525 4.90469 7.67958 4.90142 7.6443 4.89643C7.53309 4.88184 7.42341 4.8623 7.31536 4.83782C7.27134 4.82794 7.22814 4.81637 7.18494 4.8048C7.13464 4.79161 7.08587 4.77345 7.0359 4.75859C6.85034 4.67435 6.66002 4.60198 6.46595 4.5419C5.6176 4.2876 4.72057 4.26543 3.86155 4.47751C3.82786 4.42221 3.86155 4.48329 3.86155 4.47751C2.93798 4.7019 2.09309 5.19086 1.4224 5.88907C1.27086 6.05621 1.13583 6.2387 1.01932 6.43392C0.828055 6.73546 0.725815 7.08874 0.72522 7.45008V25.0012H3.16674V8.13648C3.16674 8.13648 3.65227 6.34435 6.61499 6.79219C6.61499 6.79219 7.51869 6.92923 7.84173 6.9515C7.95429 6.95976 8.06723 6.9647 8.18176 6.9647C8.95619 6.96398 9.72026 6.77904 10.4156 6.42403V4.16713C9.74982 4.6643 8.95072 4.93152 8.13146 4.93114Z" fill="white"/>
<path d="M16.8004 4.28633C15.4667 4.2908 14.1889 4.84449 13.2458 5.82657C12.3028 6.80865 11.771 8.13931 11.7668 9.52819V19.8992C11.7668 21.2898 12.2972 22.6234 13.2415 23.6067C14.1858 24.5901 15.4665 25.1424 16.8018 25.1424C18.1372 25.1424 19.4179 24.5901 20.3621 23.6067C21.3064 22.6234 21.8369 21.2898 21.8369 19.8992V9.52939C21.8326 8.14055 21.3008 6.80985 20.3578 5.82782C19.4147 4.84574 18.1369 4.29203 16.8032 4.28757M19.1845 22.4334C19.1834 22.8128 19.0382 23.1764 18.7806 23.4446C18.523 23.713 18.1739 23.8642 17.8095 23.8652H15.6324C15.2681 23.8642 14.9189 23.713 14.6613 23.4446C14.4037 23.1764 14.2585 22.8128 14.2574 22.4334V7.03809C14.2585 6.6587 14.4037 6.29515 14.6613 6.02687C14.9189 5.75855 15.2681 5.60735 15.6324 5.6063H17.8095C18.1739 5.60735 18.523 5.75855 18.7806 6.02687C19.0382 6.29515 19.1834 6.6587 19.1845 7.03809V22.4334Z" fill="white"/>
<path d="M31.6743 16.9926V22.4334C31.6733 22.8128 31.5281 23.1764 31.2704 23.4446C31.0128 23.713 30.6637 23.8641 30.2994 23.8652H28.1222C27.7578 23.8641 27.4087 23.713 27.1511 23.4446C26.8935 23.1764 26.7483 22.8128 26.7473 22.4334V7.03809C26.7483 6.6587 26.8935 6.29514 27.1511 6.02687C27.4087 5.75855 27.7578 5.60735 28.1222 5.6063H30.2994C30.6637 5.60735 31.0128 5.75855 31.2704 6.02687C31.5281 6.29514 31.6733 6.6587 31.6743 7.03809V12.2197H34.3255V9.52982C34.3255 8.13926 33.795 6.80567 32.8508 5.82239C31.9066 4.83911 30.6259 4.28674 29.2906 4.28674C27.9553 4.28674 26.6747 4.83911 25.7305 5.82239C24.7862 6.80567 24.2558 8.13926 24.2558 9.52982V19.8988C24.2558 21.2893 24.7862 22.6229 25.7305 23.6062C26.6747 24.5894 27.9553 25.1418 29.2906 25.1418C30.6259 25.1418 31.9066 24.5894 32.8508 23.6062C33.795 22.6229 34.3255 21.2893 34.3255 19.8988V16.9926H31.6743Z" fill="white"/>
<path d="M50.4889 7.88837C49.765 7.88928 49.0503 8.05277 48.3932 8.3677C47.7361 8.68258 47.1519 9.14151 46.6805 9.71314C46.0111 8.90122 45.1189 8.32239 44.124 8.0546C43.1291 7.7868 42.0793 7.84287 41.1159 8.21525C40.1525 8.58769 39.3218 9.25853 38.7357 10.1375C38.1496 11.0165 37.8361 12.0613 37.8376 13.1315V20.1601C37.841 21.2745 38.184 22.359 38.8171 23.2575C39.4503 24.156 40.3409 24.822 41.3608 25.1596V24.0779C41.0664 23.9978 40.8057 23.8186 40.6193 23.5682C40.4329 23.3178 40.3313 23.0103 40.3302 22.6935V10.6422C40.3314 10.2628 40.4766 9.89938 40.7342 9.63111C40.9918 9.36284 41.3409 9.21159 41.7052 9.21039H43.8823C44.2466 9.21159 44.5957 9.36284 44.8533 9.63111C45.1109 9.89938 45.2561 10.2628 45.2573 10.6422V19.697H47.9465V10.6422C47.9476 10.2628 48.0927 9.89929 48.3505 9.63097C48.6082 9.36269 48.9572 9.21149 49.3215 9.21039H51.4988C51.8631 9.21149 52.2121 9.36269 52.4698 9.63097C52.7271 9.89929 52.8726 10.2628 52.8735 10.6422V22.6943C52.8726 23.0002 52.778 23.2977 52.6033 23.5437C52.429 23.7897 52.1838 23.9713 51.9034 24.0622V25.1906C52.9465 24.8696 53.8623 24.2067 54.5146 23.3005C55.1674 22.3942 55.5217 21.2928 55.525 20.1601V13.1315C55.5207 11.7426 54.9894 10.4119 54.0462 9.42984C53.103 8.44781 51.8252 7.89409 50.4913 7.88962" fill="white"/>
<path d="M107.04 12.0559V9.36557C107.04 7.97506 106.51 6.64143 105.566 5.6582C104.621 4.67491 103.341 4.12251 102.005 4.12251C100.67 4.12251 99.3894 4.67491 98.4452 5.6582C97.501 6.64143 96.9702 7.97506 96.9702 9.36557V19.735C96.9702 21.1255 97.501 22.4591 98.4452 23.4423C99.3894 24.4256 100.67 24.978 102.005 24.978C103.341 24.978 104.621 24.4256 105.566 23.4423C106.51 22.4591 107.04 21.1255 107.04 19.735V16.8288H104.389V22.2688C104.388 22.6482 104.243 23.0117 103.985 23.28C103.728 23.5483 103.378 23.6995 103.014 23.7006H100.837C100.473 23.6995 100.124 23.5483 99.866 23.28C99.6082 23.0117 99.4633 22.6482 99.4623 22.2688V15.5436H103.898V13.6775H99.4623V6.87634C99.4633 6.49695 99.6082 6.1334 99.866 5.86512C100.124 5.5968 100.473 5.4456 100.837 5.44455H103.014C103.379 5.4456 103.728 5.5968 103.985 5.86512C104.243 6.1334 104.388 6.49695 104.389 6.87634V12.0559H107.04Z" fill="white"/>
<path d="M87.1488 16.9481V22.3881C87.1498 22.7675 87.2952 23.131 87.5525 23.3993C87.8103 23.6675 88.1592 23.8187 88.5235 23.8199H90.7003C91.0647 23.8187 91.4136 23.6675 91.6714 23.3993C91.9287 23.131 92.0741 22.7675 92.0751 22.3881V17.6332C92.0751 17.1716 91.8999 16.7287 91.5874 16.4013C91.2749 16.0739 90.8506 15.8885 90.4071 15.8857L88.1808 15.8712V13.5892L90.2304 13.5937C90.4723 13.5943 90.7123 13.5451 90.936 13.449C91.1597 13.353 91.3627 13.2119 91.5341 13.0339C91.7055 12.8559 91.8413 12.6444 91.9344 12.4117C92.0271 12.1789 92.0746 11.9293 92.0746 11.6773V6.99561C92.0736 6.61622 91.9282 6.25267 91.6709 5.98435C91.4131 5.71607 91.0642 5.56487 90.6999 5.56382H88.5226C88.1583 5.56487 87.8093 5.71607 87.5515 5.98435C87.2938 6.25267 87.1488 6.61622 87.1479 6.99561V12.1751H84.4963V9.56947C84.517 8.26353 84.9883 7.00895 85.8245 6.03508C86.6602 5.06121 87.8045 4.43317 89.0487 4.26572C89.7471 4.19758 90.4512 4.28175 91.1165 4.51287C91.7818 4.74398 92.3938 5.11694 92.9131 5.60803C93.4325 6.09907 93.8477 6.69743 94.1323 7.36492C94.4175 8.03246 94.5653 8.75443 94.5672 9.48484V11.6509C94.5672 12.3483 94.3483 13.0265 93.9437 13.5821C93.5386 14.1377 92.9703 14.5401 92.3256 14.7279L92.5963 14.7787C93.1488 14.8825 93.649 15.1853 94.0095 15.6341C94.3695 16.0829 94.5667 16.6492 94.5667 17.2341V19.77C94.5461 21.0757 94.0747 22.33 93.2391 23.3037C92.4039 24.2774 91.2595 24.9056 90.0159 25.0734C89.3179 25.1414 88.6133 25.0572 87.948 24.8261C87.2827 24.5951 86.6712 24.2221 86.1519 23.7311C85.633 23.2402 85.2178 22.642 84.9327 21.9746C84.648 21.3072 84.4997 20.5854 84.4978 19.8551V16.9481H87.1488Z" fill="white"/>
<path d="M66.7479 4.34833V22.4323C66.747 22.8117 66.6015 23.1752 66.3438 23.4435C66.0865 23.7118 65.7371 23.863 65.3727 23.8641H63.1959C62.8316 23.863 62.4822 23.7118 62.2249 23.4435C61.9671 23.1752 61.8217 22.8117 61.8207 22.4323V4.34833H59.3051C59.2811 5.73595 59.3291 9.21869 59.3291 9.5291V19.8988C59.3334 21.2877 59.8647 22.6184 60.8079 23.6004C61.7511 24.5825 63.0289 25.1362 64.3628 25.1407C65.1951 25.1413 66.015 24.9249 66.7465 24.5112V25.1089H69.398V9.5291C69.398 9.20918 69.4508 5.63568 69.423 4.34833H66.7479Z" fill="white"/>
<path d="M76.7272 4.24181C75.3937 4.24627 74.1155 4.79996 73.1728 5.78203C72.2296 6.76411 71.6977 8.09481 71.6934 9.48365V19.8551C71.6934 21.2457 72.2238 22.5793 73.1684 23.5626C74.1126 24.5459 75.3932 25.0983 76.7286 25.0983C78.064 25.0983 79.3446 24.5459 80.2888 23.5626C81.2334 22.5793 81.7638 21.2457 81.7638 19.8551V9.48489C81.7595 8.09601 81.2276 6.76536 80.2844 5.78328C79.3417 4.8012 78.0635 4.2475 76.73 4.24304M79.1123 22.3881C79.1108 22.7675 78.9659 23.131 78.7081 23.3993C78.4504 23.6676 78.1014 23.8188 77.7371 23.8199H75.5598C75.1955 23.8188 74.8465 23.6676 74.5888 23.3993C74.3315 23.131 74.186 22.7675 74.1851 22.3881V6.99561C74.186 6.61622 74.3315 6.25267 74.5888 5.9844C74.8465 5.71613 75.1955 5.56493 75.5598 5.56382H77.7371C78.1014 5.56493 78.4504 5.71613 78.7081 5.9844C78.9659 6.25267 79.1108 6.61622 79.1123 6.99561V22.3881Z" fill="white"/>
<path d="M81.7935 16.5391H79.1098V35.5554H81.7935V16.5391Z" fill="white"/>
<path d="M69.4714 35.5554V30.2454C69.4723 29.866 69.6178 29.5025 69.8755 29.2342C70.1328 28.9659 70.4822 28.8147 70.8466 28.8136H77.7346C78.0989 28.8147 78.4478 28.9659 78.7056 29.2342C78.9634 29.5025 79.1083 29.866 79.1098 30.2454V35.5554H81.7618V31.9348C81.7589 30.8173 81.3312 29.7465 80.5723 28.9564C79.8134 28.1662 78.7853 27.7209 77.712 27.7178H70.8374C69.7642 27.7209 68.736 28.1662 67.9771 28.9564C67.2182 29.7465 66.7906 30.8173 66.7872 31.9348V35.5554H69.4714Z" fill="white"/>
<path d="M72.8031 34.4579H68.4658C68.3828 34.4576 68.3007 34.4494 68.2196 34.4336V35.5434C68.3084 35.5496 68.3977 35.5537 68.4879 35.5537H72.8031V34.4579Z" fill="white"/>
<path d="M48.6893 1.10904L38.3425 6.9048L36.3608 5.79576L46.7111 0L48.6893 1.10904Z" fill="white"/>
<path d="M46.6517 0L56.9986 5.79576L55.0167 6.9048L44.6715 1.10904L46.6517 0Z" fill="white"/>
</g>
<path d="M0 34.8148V29.6296H0.56749V31.9037H1.3864L3.48397 29.6296H4.22386L1.86769 32.1259L4.33161 34.8148H3.57735L1.40796 32.4296H0.56749V34.8148H0Z" fill="white"/>
<path d="M5.09073 36V30.9851H5.64388V31.7555C5.95276 31.3036 6.3766 30.9036 7.06622 30.9036C7.95695 30.9036 8.84049 31.6296 8.84049 32.8888V32.9036C8.84049 34.1481 7.9641 34.8963 7.06622 34.8963C6.3766 34.8963 5.93121 34.5185 5.64388 34.0814V36H5.09073ZM6.96561 34.3851C7.68398 34.3851 8.27303 33.837 8.27303 32.911V32.8962C8.27303 31.9851 7.67678 31.4147 6.96561 31.4147C6.27599 31.4147 5.62233 32.0222 5.62233 32.8888V32.9036C5.62233 33.7926 6.27599 34.3851 6.96561 34.3851Z" fill="white"/>
<path d="M10.9673 34.8963C10.2777 34.8963 9.5809 34.4963 9.5809 33.7037V33.6889C9.5809 32.8889 10.2274 32.4518 11.1685 32.4518C11.6497 32.4518 11.973 32.5185 12.3106 32.6148V32.4815C12.3106 31.7926 11.9012 31.437 11.2044 31.437C10.7662 31.437 10.4214 31.5481 10.0766 31.7185L9.91133 31.2518C10.3208 31.0519 10.7159 30.9333 11.2618 30.9333C11.7862 30.9333 12.1885 31.0741 12.4615 31.3555C12.7129 31.6148 12.8422 31.9926 12.8422 32.474V34.8148H12.3106V34.237C12.052 34.5852 11.6282 34.8963 10.9673 34.8963ZM11.075 34.4444C11.7647 34.4444 12.3178 34.0148 12.3178 33.4074V33.037C12.0376 32.9555 11.6857 32.8741 11.2259 32.8741C10.5291 32.8741 10.1412 33.1852 10.1412 33.6667V33.6815C10.1412 34.163 10.5794 34.4444 11.075 34.4444Z" fill="white"/>
<path d="M15.6947 34.9037C14.6028 34.9037 13.7911 33.9925 13.7911 32.9185V32.9036C13.7911 31.8148 14.6028 30.9036 15.6947 30.9036C16.3987 30.9036 16.8297 31.1999 17.1817 31.5851L16.8153 31.9851C16.5208 31.6666 16.1976 31.4073 15.6875 31.4073C14.9333 31.4073 14.3586 32.0592 14.3586 32.8888V32.9036C14.3586 33.7333 14.9477 34.3926 15.7234 34.3926C16.2047 34.3926 16.5639 34.1481 16.8585 33.8222L17.2104 34.1629C16.8369 34.6 16.3915 34.9037 15.6947 34.9037Z" fill="white"/>
<path d="M18.1248 34.8148V30.9851H18.678V32.6222H20.8976V30.9851H21.4436V34.8148H20.8976V33.1407H18.678V34.8148H18.1248Z" fill="white"/>
<path d="M23.7908 34.8963C23.1012 34.8963 22.4044 34.4963 22.4044 33.7037V33.6889C22.4044 32.8889 23.0509 32.4518 23.9919 32.4518C24.4732 32.4518 24.7965 32.5185 25.1341 32.6148V32.4815C25.1341 31.7926 24.7246 31.437 24.0278 31.437C23.5897 31.437 23.2448 31.5481 22.9 31.7185L22.7348 31.2518C23.1443 31.0519 23.5393 30.9333 24.0853 30.9333C24.6097 30.9333 25.0119 31.0741 25.2849 31.3555C25.5363 31.6148 25.6657 31.9926 25.6657 32.474V34.8148H25.1341V34.237C24.8755 34.5852 24.4516 34.8963 23.7908 34.8963ZM23.8985 34.4444C24.5881 34.4444 25.1413 34.0148 25.1413 33.4074V33.037C24.8611 32.9555 24.5091 32.8741 24.0494 32.8741C23.3526 32.8741 22.9647 33.1852 22.9647 33.6667V33.6815C22.9647 34.163 23.4029 34.4444 23.8985 34.4444Z" fill="white"/>
<path d="M27.2467 34.8148H26.5858L27.6705 33.3407C27.0743 33.2 26.7223 32.7925 26.7223 32.1999V32.1925C26.7223 31.4592 27.2898 30.9851 28.1734 30.9851H29.9693V34.8148H29.4233V33.3925H28.274L27.2467 34.8148ZM29.4233 31.4592H28.1805C27.6274 31.4592 27.2755 31.7555 27.2755 32.1925V32.1999C27.2755 32.6444 27.6059 32.9407 28.1805 32.9333H29.4233V31.4592Z" fill="white"/>
<path d="M33.4619 34.8148V29.6296H37.4919V34.8148H36.9244V30.1703H34.0294V34.8148H33.4619Z" fill="white"/>
<path d="M40.5146 34.9037C39.4011 34.9037 38.5894 34 38.5894 32.9185V32.9036C38.5894 31.8148 39.4011 30.9036 40.5289 30.9036C41.6495 30.9036 42.4613 31.8073 42.4613 32.8888V32.9036C42.4613 33.9925 41.6352 34.9037 40.5146 34.9037ZM40.5289 34.3926C41.3335 34.3926 41.8938 33.7184 41.8938 32.9185V32.9036C41.8938 32.0814 41.2975 31.4073 40.5146 31.4073C39.71 31.4073 39.1569 32.0814 39.1569 32.8888V32.9036C39.1569 33.7259 39.7459 34.3926 40.5289 34.3926Z" fill="white"/>
<path d="M45.0985 30.9555L46.7866 34.8148H46.1688L44.8399 31.6592L43.5038 34.8148H42.9075L44.5885 30.9555H45.0985Z" fill="white"/>
<path d="M47.9833 34.8148H47.3224L48.407 33.3407C47.8109 33.2 47.4589 32.7925 47.4589 32.1999V32.1925C47.4589 31.4592 48.0263 30.9851 48.91 30.9851H50.7057V34.8148H50.1599V33.3925H49.0103L47.9833 34.8148ZM50.1599 31.4592H48.9172C48.3638 31.4592 48.0119 31.7555 48.0119 32.1925V32.1999C48.0119 32.6444 48.3427 32.9407 48.9172 32.9333H50.1599V31.4592Z" fill="white"/>
<path d="M51.9513 34.8148V30.9851H52.5048V32.6222H54.7243V30.9851H55.27V34.8148H54.7243V33.1407H52.5048V34.8148H51.9513Z" fill="white"/>
<path d="M57.6173 34.8963C56.928 34.8963 56.231 34.4963 56.231 33.7037V33.6889C56.231 32.8889 56.8776 32.4518 57.8189 32.4518C58.2998 32.4518 58.6233 32.5185 58.9608 32.6148V32.4815C58.9608 31.7926 58.5513 31.437 57.8544 31.437C57.4161 31.437 57.0715 31.5481 56.7269 31.7185L56.5617 31.2518C56.9712 31.0519 57.3662 30.9333 57.912 30.9333C58.4366 30.9333 58.8389 31.0741 59.1115 31.3555C59.363 31.6148 59.4921 31.9926 59.4921 32.474V34.8148H58.9608V34.237C58.7021 34.5852 58.2782 34.8963 57.6173 34.8963ZM57.7253 34.4444C58.415 34.4444 58.968 34.0148 58.968 33.4074V33.037C58.6877 32.9555 58.3358 32.8741 57.876 32.8741C57.1795 32.8741 56.7912 33.1852 56.7912 33.6667V33.6815C56.7912 34.163 57.2294 34.4444 57.7253 34.4444Z" fill="white"/>
</svg>
