<svg width="112" height="36" viewBox="0 0 112 36" fill="none" xmlns="http://www.w3.org/2000/svg">
<path d="M5.54977 0.000608082C8.21968 0.000608082 9.98962 0.99057 10.8895 2.94049L8.48966 3.84046C7.91969 2.79049 6.95974 2.28052 5.6098 2.28052C3.86985 2.46051 2.90988 3.69046 2.78989 6.00038C2.84989 8.37025 3.86985 9.66021 5.81975 9.8402C7.13972 9.8402 8.06966 9.45021 8.60966 8.64028V7.2003H5.1898V5.10041H11.0095V9.39023C10.1996 11.0702 8.42968 11.9101 5.69979 11.9101C2.03992 11.7602 0.149994 9.78022 0 5.94036C0.209992 2.19052 2.06992 0.210599 5.54977 0.000608082ZM17.9693 0.000608082C21.5391 0.210599 23.4291 2.22052 23.699 6.03035C23.489 9.78022 21.5691 11.7602 17.9693 11.9701C14.3394 11.7602 12.4195 9.78022 12.2095 6.03035C12.3595 2.16052 14.2794 0.150602 17.9693 0.000608082ZM17.8493 9.75021C19.7392 9.69023 20.7292 8.43028 20.7892 6.03035C20.7292 3.63046 19.7692 2.37051 17.9093 2.25052C16.0194 2.34051 15.0294 3.60046 14.9094 6.03035C14.9994 8.40027 15.9594 9.66021 17.8493 9.75021ZM29.8788 11.9701C26.9089 12.0001 25.169 10.7102 24.629 8.10028L27.2089 7.6203C27.4189 9.18024 28.2889 9.99022 29.8188 9.99022C30.9588 9.9602 31.5887 9.51024 31.6487 8.64028C31.6487 7.98027 31.2588 7.50029 30.4488 7.17034C29.6088 6.90031 28.8289 6.66035 28.1389 6.48036C26.009 6.03035 24.959 4.92041 25.049 3.18048C25.259 1.20056 26.6689 0.150602 29.3088 0.000608082C32.0387 -0.0293907 33.6586 1.05057 34.1386 3.24048L31.5587 3.78046C31.3788 2.6405 30.6588 2.04053 29.3988 2.04053C28.3788 2.07052 27.8389 2.43051 27.7789 3.15048C27.7189 3.81046 28.3788 4.29044 29.8188 4.62042C30.8388 4.83041 31.7387 5.13042 32.5487 5.55037C33.7786 6.18037 34.4086 7.17034 34.4386 8.49026C34.3186 10.7402 32.8187 11.8801 29.8788 11.9701ZM45.5982 2.31052H41.8783V11.7602H39.2084V2.31052H35.4286V0.150602H45.5982V2.31052ZM49.618 11.7602H46.9481V0.150602H49.618V11.7602ZM59.9677 0.000608082C62.6374 0.000608082 64.4076 0.99057 65.3075 2.94049L62.9074 3.84046C62.3377 2.79049 61.3776 2.28052 60.0274 2.28052C58.2878 2.46051 57.3277 3.69046 57.2077 6.00038C57.2679 8.37025 58.2878 9.66021 60.2377 9.8402C61.5578 9.8402 62.4873 9.45021 63.0274 8.64028V7.2003H59.6078V5.10041H65.4275V9.39023C64.6174 11.0702 62.8477 11.9101 60.1178 11.9101C56.4579 11.7602 54.538 9.78022 54.388 5.94036C54.6279 2.19052 56.4579 0.210599 59.9677 0.000608082ZM77.1867 11.7001H73.8872L71.0669 7.23031H69.5371V11.7301H66.9272V0.150602H72.2369C75.0571 0.210599 76.5267 1.38055 76.6467 3.60046C76.6768 5.52041 75.7468 6.69036 73.827 7.05033L77.1867 11.7001ZM73.8571 3.78046C73.9168 2.7005 73.2573 2.16052 71.8173 2.22052H69.5672V5.31041H71.8173C73.1971 5.31041 73.8872 4.80041 73.8571 3.78046ZM83.5766 0.000608082C87.1466 0.210599 89.0363 2.22052 89.3064 6.03035C89.0966 9.78022 87.1762 11.7602 83.5766 11.9701C79.9467 11.7602 78.0269 9.78022 77.8166 6.03035C77.9667 2.16052 79.887 0.150602 83.5766 0.000608082ZM83.4566 9.75021C85.3468 9.69023 86.3366 8.43028 86.3963 6.03035C86.3366 3.63046 85.3764 2.37051 83.5168 2.25052C81.6266 2.34051 80.6369 3.60046 80.5169 6.03035C80.5766 8.40027 81.5669 9.66021 83.4566 9.75021ZM95.7263 11.9101C92.3665 11.9101 90.6565 10.2002 90.6264 6.81032V0.150602H93.2363V6.81032C93.2664 8.73027 94.1362 9.72024 95.8462 9.75021C97.496 9.75021 98.3061 8.76024 98.3061 6.75034V0.150602H100.976V6.72032C101.036 10.1702 99.2663 11.9101 95.7263 11.9101ZM111.925 3.84046C111.956 6.39037 110.426 7.68028 107.306 7.68028H105.356V11.7602H102.746V0.150602H107.576C110.365 0.240599 111.805 1.44055 111.925 3.84046ZM109.196 3.93045C109.165 2.82049 108.446 2.22052 107.096 2.19052H105.356V5.64036H107.096C108.446 5.64036 109.136 5.0704 109.196 3.93045Z" fill="white"/>
<path d="M2.06827 36C1.94827 36 1.85828 35.91 1.85828 35.7901V19.4107C1.85828 19.2907 1.94827 19.2007 2.06827 19.2007C2.18826 19.2007 2.27826 19.2907 2.27826 19.4107V35.82C2.27826 35.91 2.18826 36 2.06827 36Z" fill="white"/>
<path d="M33.8972 27.0901C33.7772 27.0901 33.6872 27 33.6872 26.8801V19.3803C33.6872 19.2604 33.7772 19.1704 33.8972 19.1704C34.0172 19.1704 34.1072 19.2604 34.1072 19.3803V26.8801C34.1072 27 34.0172 27.0901 33.8972 27.0901Z" fill="white"/>
<path d="M40.8269 19.5903H33.8972C33.7772 19.5903 33.6872 19.5003 33.6872 19.3803C33.6872 19.2604 33.7772 19.1704 33.8972 19.1704H40.8269C40.9469 19.1704 41.0369 19.2604 41.0369 19.3803C41.0369 19.5003 40.9469 19.5903 40.8269 19.5903Z" fill="white"/>
<path d="M11.7277 35.9996C7.97785 35.9996 4.918 32.2197 4.918 27.5999C4.918 26.8799 5.008 26.13 5.15797 25.44C5.18799 25.32 5.27798 25.26 5.39799 25.29C5.51799 25.32 5.57797 25.41 5.54796 25.53C5.39799 26.19 5.33801 26.91 5.33801 27.5999C5.33801 32.0098 8.21787 35.6096 11.7577 35.6096C15.2976 35.6096 18.1775 32.0098 18.1775 27.5999C18.1775 23.1901 15.2976 19.5902 11.7577 19.5902C10.3778 19.5902 9.08783 20.1302 7.9779 21.1202C7.88786 21.1802 7.7679 21.1802 7.70788 21.1202C7.6479 21.0302 7.6479 20.9102 7.70788 20.8502C8.87783 19.7702 10.2878 19.2302 11.7577 19.2302C15.5076 19.2302 18.5675 23.0101 18.5675 27.6299C18.5675 32.2497 15.5076 35.9996 11.7277 35.9996Z" fill="white"/>
<path d="M26.0071 35.9998C23.1572 35.9998 20.8473 33.7199 20.8473 30.96C20.8473 28.1701 23.1572 25.9202 26.0071 25.9202C28.857 25.9202 31.1669 28.2002 31.1669 30.96C31.1669 33.7199 28.857 35.9998 26.0071 35.9998ZM26.0071 26.2802C23.3672 26.2802 21.2373 28.3801 21.2373 30.93C21.2373 33.5099 23.3672 35.5798 26.0071 35.5798C28.647 35.5798 30.7769 33.4799 30.7769 30.93C30.7769 28.3801 28.617 26.2802 26.0071 26.2802Z" fill="white"/>
<path d="M36.8067 35.999C36.6868 35.999 36.5968 35.909 36.5968 35.7891C36.5968 35.6691 36.6868 35.5791 36.8067 35.5791C39.3267 35.5791 41.3965 33.4491 41.3965 30.8093C41.3965 28.1694 39.3267 26.0394 36.8067 26.0394C35.7868 26.0394 34.8268 26.3694 34.0169 26.9994C33.9269 27.0594 33.8069 27.0594 33.7469 26.9694C33.6869 26.8794 33.6869 26.7594 33.7769 26.6994C34.6469 26.0094 35.6968 25.6494 36.8067 25.6494C39.5666 25.6494 41.7865 27.9594 41.7865 30.8093C41.7865 33.6591 39.5666 35.999 36.8067 35.999Z" fill="white"/>
<path d="M45.1466 22.6206C44.1866 22.6206 43.4066 21.8406 43.4066 20.9107C43.4066 19.9507 44.1866 19.2007 45.1466 19.2007C46.1065 19.2007 46.8865 19.9807 46.8865 20.9107C46.8865 21.8706 46.1065 22.6206 45.1466 22.6206ZM45.1466 19.5907C44.3966 19.5907 43.7966 20.1907 43.7966 20.9107C43.7966 21.6306 44.3966 22.2306 45.1466 22.2306C45.8966 22.2306 46.4965 21.6306 46.4965 20.9107C46.4965 20.1907 45.8666 19.5907 45.1466 19.5907Z" fill="#B6A68B"/>
<path d="M26.0071 26.2801C23.9672 26.2801 22.3172 24.6901 22.3172 22.7402C22.3172 22.6202 22.4072 22.5302 22.5272 22.5302C22.6472 22.5302 22.7372 22.6202 22.7372 22.7402C22.7372 24.4801 24.2072 25.8901 26.0071 25.8901C27.807 25.8901 29.277 24.4801 29.277 22.7402C29.277 21.0003 27.807 19.5903 26.0071 19.5903C25.8871 19.5903 25.7971 19.5003 25.7971 19.3803C25.7971 19.2604 25.8871 19.1704 26.0071 19.1704C28.047 19.1704 29.6969 20.7603 29.6969 22.7102C29.6969 24.6601 28.017 26.2801 26.0071 26.2801Z" fill="white"/>
<path d="M50.8476 26.0698V19.0801H55.5274V19.68H51.5377V22.1099H53.8475C54.6275 22.1099 55.1976 22.2899 55.5575 22.6499C55.9174 23.0099 56.0975 23.4599 56.0975 24.0298C56.0975 24.3899 56.0072 24.7498 55.8576 25.0498C55.7076 25.3498 55.4676 25.5898 55.1374 25.7698C54.8076 25.9498 54.4177 26.0398 53.9077 26.0398H50.8476V26.0698ZM51.5377 25.4398H53.8174C54.2074 25.4398 54.5075 25.3798 54.7474 25.2298C54.9873 25.0798 55.1374 24.8998 55.2573 24.6898C55.3773 24.4799 55.4074 24.2398 55.4074 23.9999C55.4074 23.7599 55.3472 23.5499 55.2573 23.3399C55.1675 23.1299 54.9873 22.9799 54.7775 22.8299C54.5672 22.6799 54.2074 22.6499 53.7873 22.6499H51.5377V25.4398Z" fill="white"/>
<path d="M58.9779 19.0801H59.5476L62.4577 26.0698H61.7379L60.8676 23.8799H57.6579L56.7881 26.0698H56.0377L58.9779 19.0801ZM60.6578 23.3399L59.2775 19.89L57.8978 23.3399H60.6578Z" fill="white"/>
<path d="M68.6663 19.0801V26.0698H67.9762V22.7999H63.8364V26.0698H63.1463V19.0801H63.8364V22.1999H67.9762V19.0801H68.6663Z" fill="white"/>
<path d="M75.6272 19.0801V26.0698H74.9371V22.7999H70.7974V26.0698H70.1072V19.0801H70.7974V22.1999H74.9371V19.0801H75.6272Z" fill="white"/>
<path d="M77.0667 26.0698V19.0801H77.7563V21.8099H79.5266C80.0365 21.8099 80.4566 21.8999 80.7864 22.0799C81.1161 22.2599 81.3861 22.4999 81.5362 22.8299C81.7164 23.1599 81.7761 23.5199 81.7761 23.9398C81.7761 24.3298 81.6863 24.6898 81.5362 25.0198C81.3861 25.3498 81.1161 25.6198 80.7864 25.7998C80.4566 25.9798 80.0365 26.0998 79.5562 26.0998H77.0667V26.0698ZM77.7563 25.4698H79.4965C79.8864 25.4698 80.1866 25.4098 80.4265 25.2598C80.6664 25.1098 80.8466 24.9298 80.9364 24.6898C81.0564 24.4498 81.0865 24.2098 81.0865 23.9398C81.0865 23.6699 81.0263 23.3999 80.9364 23.1599C80.8466 22.9199 80.6664 22.7399 80.4265 22.5899C80.1866 22.4399 79.8563 22.3799 79.4362 22.3799H77.7267V25.4698H77.7563ZM83.0364 26.0698V19.0801H83.7261V26.0698H83.0364Z" fill="white"/>
<path d="M85.1962 26.0704V19.0807H85.8863V25.1405L90.2358 19.0807H90.8657V26.0704H90.1761V20.1306L85.8863 26.0704H85.1962ZM88.0159 18.4807C87.6861 18.4807 87.4161 18.4207 87.2058 18.3307C86.996 18.2408 86.8158 18.0907 86.6959 17.9408C86.5759 17.7608 86.5162 17.5807 86.5162 17.4008H87.0562C87.0562 17.5807 87.1461 17.7308 87.266 17.8508C87.386 18.0007 87.656 18.0608 87.9858 18.0608C88.316 18.0608 88.556 18.0007 88.706 17.8807C88.8561 17.7608 88.9158 17.5807 88.9158 17.4008H89.4559C89.4559 17.6108 89.3961 17.7907 89.2762 17.9408C89.1557 18.1207 89.0062 18.2408 88.7959 18.3307C88.6162 18.4207 88.3462 18.4807 88.0159 18.4807Z" fill="white"/>
<path d="M50.8476 35.9098V28.9201H51.5377V32.04H52.5877L54.9873 28.9201H55.7974L53.1574 32.31L55.9475 35.9098H55.1073L52.6173 32.6699H51.5377V35.9098H50.8476Z" fill="white"/>
<path d="M59.2169 35.9695C58.737 35.9695 58.2868 35.8795 57.8667 35.6695C57.4768 35.4596 57.1169 35.2196 56.8469 34.8596C56.5467 34.5296 56.3369 34.1396 56.1868 33.7196C56.0368 33.2997 55.9469 32.8497 55.9469 32.3997C55.9469 31.9197 56.0368 31.4997 56.1868 31.0498C56.3369 30.6298 56.5768 30.2398 56.877 29.9098C57.1771 29.5798 57.537 29.3098 57.927 29.1298C58.3169 28.9498 58.7667 28.8298 59.2169 28.8298C59.6967 28.8298 60.1469 28.9198 60.5665 29.1298C60.9565 29.3398 61.3169 29.6098 61.5869 29.9398C61.8865 30.2698 62.0968 30.6598 62.2469 31.0797C62.3965 31.4997 62.4868 31.9197 62.4868 32.3697C62.4868 32.8496 62.3965 33.2696 62.2469 33.7196C62.0968 34.1396 61.8569 34.5296 61.5568 34.8596C61.2566 35.1896 60.9269 35.4596 60.5068 35.6396C60.1168 35.8795 59.6666 35.9695 59.2169 35.9695ZM56.6069 32.4297C56.6069 32.8197 56.6667 33.1797 56.7871 33.5396C56.9071 33.8996 57.0868 34.1996 57.3267 34.4696C57.5671 34.7396 57.8366 34.9496 58.1368 35.1296C58.467 35.2795 58.7968 35.3695 59.1868 35.3695C59.5767 35.3695 59.9366 35.2795 60.2669 35.1296C60.5966 34.9496 60.8667 34.7396 61.077 34.4696C61.3169 34.1996 61.4669 33.8696 61.5869 33.5396C61.7068 33.1797 61.7666 32.8497 61.7666 32.4897C61.7666 32.0997 61.7068 31.7397 61.5869 31.4097C61.4669 31.0498 61.2867 30.7498 61.0468 30.4798C60.8069 30.2098 60.5369 29.9998 60.2368 29.8198C59.907 29.6698 59.5767 29.5798 59.1868 29.5798C58.7968 29.5798 58.4369 29.6698 58.1066 29.8198C57.7769 29.9698 57.5069 30.2098 57.2971 30.4798C57.0567 30.7498 56.9071 31.0797 56.7871 31.4097C56.6667 31.7097 56.6069 32.0697 56.6069 32.4297Z" fill="white"/>
<path d="M69.6571 35.9098V30.21L67.137 34.6499H66.7174L64.1672 30.21V35.9098H63.4771V28.9201H64.1973L66.9272 33.7199L69.6872 28.9201H70.3768V35.9098H69.6571Z" fill="white"/>
<path d="M71.7867 35.9098V28.9201H77.0965V35.9098H76.4063V29.5201H72.5065V35.9098H71.7867Z" fill="white"/>
<path d="M83.2458 35.9098V29.5201H80.396L80.3658 30.99C80.3357 31.95 80.276 32.7599 80.156 33.3899C80.0361 34.0199 79.9161 34.5299 79.7058 34.8898C79.5261 35.2499 79.2862 35.5198 79.0162 35.6698C78.7462 35.8198 78.4159 35.9098 78.0259 35.9098V35.3098C78.296 35.3098 78.5063 35.2499 78.7161 35.0998C78.9259 34.9798 79.0759 34.7399 79.226 34.4099C79.3761 34.0799 79.4659 33.6299 79.5558 33.0599C79.6461 32.49 79.7058 31.74 79.7058 30.84L79.7661 28.9201H83.9359V35.9098H83.2458Z" fill="white"/>
<path d="M90.0858 35.3098V35.9098H85.3759V28.9201H89.996V29.5201H86.066V32.04H89.4855V32.61H86.066V35.2798H90.0858V35.3098Z" fill="white"/>
<path d="M91.0464 35.9098V28.9201H91.7366V32.04H92.7866L95.1862 28.9201H95.9963L93.3562 32.31L96.1464 35.9098H95.3062L92.8162 32.6699H91.7366V35.9098H91.0464Z" fill="white"/>
<path d="M96.1459 32.3704C96.1459 31.9504 96.2057 31.5304 96.3557 31.1104C96.5058 30.6904 96.7156 30.3305 97.0157 30.0004C97.2858 29.6705 97.6456 29.4005 98.0657 29.1905C98.4858 28.9805 98.9356 28.8905 99.4756 28.8905C100.106 28.8905 100.646 29.0405 101.066 29.3105C101.516 29.6105 101.846 29.9704 102.055 30.4204L101.516 30.7504C101.366 30.4505 101.186 30.2105 100.946 30.0305C100.706 29.8505 100.466 29.7305 100.225 29.6405C99.9559 29.5505 99.7155 29.5205 99.4455 29.5205C99.0259 29.5205 98.6655 29.6105 98.3358 29.7605C98.006 29.9405 97.736 30.1505 97.5257 30.4204C97.3159 30.6904 97.1357 31.0204 97.0157 31.3504C96.8958 31.6804 96.8361 32.0404 96.8361 32.4004C96.8361 32.7904 96.8958 33.1503 97.0459 33.5103C97.1658 33.8703 97.3756 34.1703 97.5859 34.4403C97.8258 34.7103 98.0959 34.9203 98.4256 35.1003C98.7559 35.2502 99.0856 35.3402 99.4756 35.3402C99.7456 35.3402 100.016 35.2802 100.286 35.1903C100.556 35.1003 100.826 34.9502 101.066 34.7703C101.306 34.5903 101.486 34.3203 101.636 34.0203L102.205 34.3203C102.055 34.6803 101.846 34.9502 101.545 35.2203C101.246 35.4602 100.916 35.6402 100.526 35.7602C100.166 35.8802 99.8059 35.9402 99.4455 35.9402C98.9657 35.9402 98.516 35.8502 98.126 35.6402C97.736 35.4303 97.3756 35.1602 97.076 34.8003C96.7758 34.4403 96.566 34.0803 96.416 33.6303C96.2358 33.2403 96.1459 32.7904 96.1459 32.3704Z" fill="white"/>
</svg>
