<svg width="94" height="36" viewBox="0 0 94 36" fill="none" xmlns="http://www.w3.org/2000/svg">
<path d="M11.7863 4.36353H4.15546V22.7747H0V0.40049H11.7863V4.36353Z" fill="white"/>
<path d="M23.8005 0.000935348C25.3363 -0.00361199 26.8565 0.308496 28.2662 0.91777C29.6355 1.49533 30.8806 2.33126 31.9336 3.37987C32.9792 4.44081 33.8103 5.69361 34.381 7.06958C34.9858 8.49096 35.2953 10.0204 35.2906 11.5651C35.3131 13.6273 34.7873 15.6586 33.7672 17.451C32.7793 19.1979 31.3388 20.6462 29.5972 21.6434C27.817 22.6678 25.7948 23.1964 23.741 23.1741C22.1611 23.1814 20.5954 22.8747 19.135 22.2719C17.737 21.7085 16.4627 20.8773 15.3838 19.8249C14.3199 18.7669 13.4734 17.511 12.892 16.1279C12.2761 14.6971 11.9611 13.1549 11.9664 11.5973C11.9584 10.0301 12.2703 8.47785 12.8832 7.0355C13.4591 5.65349 14.3036 4.39951 15.3677 3.34626C16.4515 2.29562 17.73 1.46671 19.1315 0.906078C20.6131 0.300008 22.1998 -0.0075882 23.8005 0.000935348ZM23.5345 3.99563C22.5575 3.9819 21.5883 4.17132 20.6884 4.55188C19.7885 4.93243 18.9775 5.49586 18.3068 6.20635C17.6035 6.90768 17.049 7.74384 16.6768 8.66467C16.3045 9.5855 16.122 10.572 16.1404 11.5651C16.1343 12.5907 16.3355 13.6069 16.7318 14.5529C17.1027 15.4546 17.6452 16.2757 18.3292 16.9706C19.0191 17.659 19.8383 18.2042 20.7396 18.5748C21.6803 18.97 22.691 19.1712 23.7113 19.1662C24.6929 19.1937 25.6695 19.0174 26.5795 18.6485C27.4894 18.2795 28.3131 17.726 28.9985 17.0228C29.6954 16.3116 30.2414 15.4669 30.6036 14.5394C30.9657 13.6119 31.1366 12.6208 31.1059 11.6255C31.137 10.6164 30.9623 9.61147 30.5924 8.67206C30.2224 7.73265 29.665 6.87845 28.9541 6.16157C28.2476 5.44785 27.4018 4.88707 26.4694 4.51414C25.537 4.1412 24.5378 3.96405 23.534 3.99369L23.5345 3.99563Z" fill="white"/>
<path d="M54.6921 16.5337H59.5713C58.7304 18.5314 57.2985 20.224 55.4678 21.3844C53.6097 22.5773 51.4425 23.1994 49.235 23.1737C48.1737 23.1754 47.1168 23.0362 46.0923 22.7596C45.1052 22.4974 44.1577 22.1041 43.2751 21.5904C42.4109 21.0828 41.6136 20.4693 40.9016 19.7641C40.1882 19.0637 39.5693 18.2732 39.0606 17.4126C38.5478 16.5366 38.1526 15.5969 37.8851 14.6177C37.6037 13.6041 37.4619 12.5568 37.4637 11.5048C37.4591 9.96902 37.7712 8.44876 38.3806 7.03901C38.9571 5.67105 39.7904 4.42616 40.8354 3.37168C41.8898 2.3267 43.1347 1.49342 44.5027 0.916881C45.9124 0.30761 47.4327 -0.00449835 48.9686 4.89838e-05C50.3568 -0.00345322 51.7353 0.234241 53.0424 0.702533C54.3293 1.15952 55.5235 1.84306 56.5694 2.72083C57.2073 3.25533 57.7829 3.85997 58.2854 4.52332C58.7909 5.24097 59.2219 6.00816 59.5718 6.81297H54.9288C54.2654 5.90813 53.3995 5.17123 52.4001 4.66118C51.3513 4.18717 50.2085 3.95715 49.0579 3.98841C48.0029 3.9449 46.952 4.14351 45.9855 4.56901C45.0191 4.99449 44.1629 5.63563 43.4826 6.44323C42.8913 7.13755 42.4328 7.93464 42.1297 8.7947C41.805 9.67032 41.6373 10.5963 41.6343 11.5301C41.6256 12.8686 41.9727 14.1852 42.6398 15.3455C43.2907 16.4993 44.2343 17.461 45.3756 18.1336C46.5149 18.8149 47.8193 19.1705 49.1467 19.1614C50.1437 19.1781 51.132 18.9708 52.0382 18.555C53.0352 18.0432 53.9337 17.3589 54.6921 16.5337Z" fill="white"/>
<path d="M65.0146 22.7747V4.36353H60.8587V0.40049H73.3075V4.36353H69.1526V22.7747H65.0146Z" fill="white"/>
<path d="M89.7763 0.40049H93.9907V22.7747H89.8651V7.26211L80.149 22.7747H75.9341V0.40049H80.0597V15.898L89.7763 0.40049Z" fill="white"/>
<path d="M14.0387 35.9304V31.9357H16.9276V32.3469H14.4918V33.7109H16.6727V34.122H14.4918V35.5207H16.9582V35.9318L14.0387 35.9304Z" fill="white"/>
<path d="M17.7609 35.9304V31.9357H19.4626C19.6516 31.9203 19.8419 31.9438 20.0215 32.0046C20.2012 32.0654 20.3666 32.1623 20.5075 32.2894C20.5914 32.3754 20.6573 32.4772 20.7015 32.5889C20.7457 32.7007 20.7671 32.8201 20.7647 32.9402C20.7717 33.1418 20.7139 33.3405 20.6 33.507C20.4861 33.6735 20.3219 33.7992 20.1314 33.8658C20.7024 34.0369 20.9878 34.3618 20.9878 34.8401C20.9935 34.9956 20.9605 35.15 20.8916 35.2895C20.8228 35.4291 20.7205 35.5494 20.5937 35.6396C20.2826 35.8486 19.9119 35.9512 19.5375 35.9318L17.7609 35.9304ZM18.2062 33.7148H19.388C19.6252 33.7268 19.8598 33.6608 20.0559 33.5267C20.1385 33.4648 20.2046 33.3836 20.2484 33.2902C20.2923 33.1967 20.3125 33.0939 20.3073 32.9909C20.3107 32.8985 20.2914 32.8067 20.251 32.7236C20.2107 32.6404 20.1506 32.5684 20.0759 32.5139C19.8826 32.3865 19.6532 32.3253 19.4221 32.3395H18.2042L18.2062 33.7148ZM18.2062 35.5246H19.5478C19.8019 35.5388 20.0539 35.4717 20.2673 35.3331C20.3525 35.273 20.4212 35.1923 20.4671 35.0987C20.513 35.0051 20.5346 34.9014 20.5299 34.7973C20.5338 34.6962 20.5108 34.5958 20.4632 34.5066C20.4157 34.4173 20.3451 34.3422 20.259 34.2891C20.0176 34.1563 19.7434 34.0948 19.4684 34.1118H18.2067L18.2062 35.5246Z" fill="white"/>
<path d="M21.7803 35.9305V31.9357H23.2764C23.6692 31.9145 24.0564 32.0356 24.3671 32.2768C24.5015 32.3916 24.6079 32.5356 24.6781 32.6978C24.7483 32.86 24.7806 33.036 24.7725 33.2126C24.7815 33.3977 24.7454 33.5823 24.6674 33.7504C24.5893 33.9185 24.4715 34.0651 24.3243 34.1777C23.9994 34.4134 23.605 34.5334 23.2038 34.5186H22.2334V35.9314L21.7803 35.9305ZM22.2314 34.1094H23.2194C23.5052 34.1237 23.787 34.0375 24.0159 33.8658C24.1133 33.789 24.1912 33.6903 24.2433 33.5777C24.2954 33.4652 24.3203 33.3419 24.316 33.2179C24.3227 33.0956 24.3 32.9734 24.2498 32.8616C24.1997 32.7498 24.1235 32.6517 24.0276 32.5754C23.7989 32.414 23.5223 32.3345 23.2428 32.3498H22.2324L22.2314 34.1094Z" fill="white"/>
<path d="M28.8151 35.391C28.6275 35.5904 28.3997 35.7478 28.1467 35.8526C27.8938 35.9574 27.6215 36.0073 27.3478 35.999C27.0752 36.0077 26.8039 35.9582 26.5519 35.8539C26.2999 35.7496 26.073 35.5928 25.8863 35.394C25.51 35.0016 25.3046 34.476 25.3153 33.9325C25.3108 33.6634 25.3594 33.3961 25.4582 33.1458C25.5571 32.8955 25.7044 32.6672 25.8917 32.4739C26.0793 32.2745 26.3071 32.1172 26.56 32.0124C26.813 31.9075 27.0853 31.8576 27.359 31.8659C27.6316 31.8573 27.9029 31.9068 28.1549 32.0111C28.4069 32.1155 28.6337 32.2722 28.8205 32.471C29.1967 32.8634 29.402 33.389 29.3914 33.9325C29.396 34.2016 29.3475 34.4689 29.2486 34.7191C29.1497 34.9695 29.0024 35.1977 28.8151 35.391ZM26.2332 35.1026C26.3759 35.2585 26.5505 35.382 26.7451 35.4647C26.9396 35.5474 27.1496 35.5874 27.361 35.582C27.571 35.5876 27.7797 35.5479 27.973 35.4657C28.1663 35.3835 28.3397 35.2607 28.4814 35.1055C28.7766 34.7872 28.9354 34.366 28.9237 33.932C28.9336 33.4985 28.7726 33.0786 28.4756 32.7628C28.3328 32.6069 28.1582 32.4834 27.9637 32.4007C27.7691 32.318 27.5591 32.2781 27.3478 32.2834C27.1377 32.2777 26.9289 32.3173 26.7355 32.3996C26.5422 32.482 26.3688 32.605 26.2273 32.7604C25.9322 33.0785 25.7735 33.4997 25.785 33.9334C25.7747 34.3667 25.9351 34.7866 26.2317 35.1026H26.2332Z" fill="white"/>
<path d="M30.2426 35.9304V31.9357H33.3944V35.9304H32.9433V32.3449H30.6926V35.9304H30.2426Z" fill="white"/>
<path d="M34.4215 35.9304V31.9357H37.3104V32.3469H34.8745V33.7109H37.0556V34.122H34.8745V35.5207H37.341V35.9318L34.4215 35.9304Z" fill="white"/>
<path d="M38.1467 35.9303V31.9356H38.5978V35.2526L40.9849 31.9356H41.4131V35.9303H40.9678V32.6127L38.5852 35.9303H38.1467ZM40.3507 31.4056C40.2009 31.5365 40.0073 31.6061 39.8084 31.6004C39.6094 31.6061 39.4157 31.5365 39.2658 31.4056C39.1176 31.2747 39.0205 31.0958 38.9914 30.9004L39.2998 30.8375C39.3211 30.9547 39.3845 31.0601 39.4781 31.1336C39.5717 31.2073 39.6891 31.244 39.8079 31.237C39.9268 31.244 40.0442 31.2073 40.1378 31.1336C40.2314 31.0601 40.2948 30.9547 40.316 30.8375L40.6244 30.9004C40.5951 31.0959 40.4974 31.2748 40.3487 31.405L40.3507 31.4056Z" fill="white"/>
<path d="M44.2653 35.9986C43.9979 36.0055 43.7321 35.956 43.4852 35.8532C43.2383 35.7503 43.0159 35.5965 42.8326 35.4018C42.6448 35.2068 42.4975 34.9764 42.3995 34.724C42.3014 34.4716 42.2543 34.2023 42.2611 33.9315C42.2555 33.6614 42.3036 33.3929 42.4026 33.1415C42.5017 32.8901 42.6497 32.6609 42.8379 32.4672C43.0228 32.2708 43.247 32.1157 43.4959 32.012C43.7448 31.9082 44.0128 31.8581 44.2823 31.865C44.5761 31.8569 44.8683 31.9123 45.1387 32.0272C45.3938 32.1494 45.6272 32.3125 45.8296 32.51L45.5329 32.8301C45.2034 32.4881 44.7518 32.2908 44.277 32.2815C44.0696 32.2769 43.8637 32.3169 43.6731 32.3986C43.4825 32.4804 43.3117 32.6021 43.1721 32.7555C42.8759 33.0743 42.7171 33.4967 42.7298 33.9315C42.7185 34.366 42.8784 34.7875 43.175 35.1051C43.3139 35.2587 43.4842 35.3808 43.6743 35.463C43.8644 35.5452 44.0699 35.5856 44.277 35.5815C44.5132 35.5863 44.7474 35.5375 44.962 35.4388C45.1846 35.3259 45.3887 35.1795 45.567 35.0048L45.8637 35.3185C45.6597 35.5286 45.4201 35.7009 45.1558 35.8271C44.8748 35.9479 44.571 36.0064 44.2653 35.9986Z" fill="white"/>
<path d="M46.5497 35.9304V31.9357H47.0008V34.3228L49.296 31.9357H49.8806L48.1675 33.6827L49.955 35.9323H49.3891L47.8534 33.9969L47.0028 34.8591V35.9309L46.5497 35.9304Z" fill="white"/>
<path d="M50.209 35.9299L52.0306 31.9045H52.453L54.2746 35.9299H53.7874L53.3194 34.8737H51.1435L50.6698 35.9299H50.209ZM51.3226 34.4684H53.1437L52.2346 32.4282L51.3226 34.4684Z" fill="white"/>
<path d="M54.6341 35.9303L55.8845 34.3261C55.585 34.2812 55.3071 34.1423 55.0911 33.9296C54.9912 33.8242 54.9139 33.7 54.8631 33.5642C54.8117 33.4284 54.7887 33.2838 54.7944 33.1389C54.7863 32.9919 54.8093 32.8449 54.8611 32.7072C54.9135 32.5696 54.9936 32.4443 55.0968 32.3395C55.2538 32.1972 55.4381 32.0881 55.6383 32.0185C55.8384 31.949 56.0501 31.9205 56.2618 31.9347H57.9667V35.9294H57.5155V34.3992H56.3679L55.1803 35.9294L54.6341 35.9303ZM56.2906 34.0177H57.5179V32.339H56.2906C56.016 32.3228 55.7448 32.4028 55.5226 32.5651C55.4323 32.6377 55.3603 32.7306 55.3123 32.8362C55.2643 32.9418 55.2413 33.0571 55.2461 33.173C55.2423 33.2912 55.2672 33.4085 55.3181 33.5153C55.369 33.622 55.4443 33.7151 55.5384 33.7868C55.7549 33.9479 56.0208 34.0294 56.2906 34.0177Z" fill="white"/>
<path d="M60.6057 35.9304V31.9357H61.0569V34.3228L63.3523 31.9357H63.9369L62.2243 33.6827L64.0108 35.9323H63.4459L61.9099 33.9969L61.0593 34.8591V35.9309L60.6057 35.9304Z" fill="white"/>
<path d="M65.1965 35.9982C64.9618 35.9986 64.7304 35.9419 64.5226 35.8331L64.6992 35.4731C64.8562 35.555 65.0309 35.5962 65.2075 35.5929C65.3842 35.5805 65.5536 35.5174 65.6957 35.4111C65.8373 35.3049 65.9453 35.1599 66.0067 34.9937L64.2485 31.9333H64.7621L66.2352 34.5421L67.5082 31.9333H67.9992L66.4176 35.0906C66.3274 35.3461 66.1627 35.5689 65.9453 35.7305C65.7278 35.8922 65.4672 35.9854 65.1965 35.9982Z" fill="white"/>
<path d="M68.3649 35.93L69.9009 33.8917L68.4221 31.9333H68.9529L70.1808 33.5663L71.3985 31.9333H71.9236L70.4448 33.8859L71.9808 35.9319H71.4446L70.1659 34.2132L68.8867 35.9319L68.3649 35.93Z" fill="white"/>
<path d="M72.7037 35.9304V31.9357H73.1549V33.7114H75.4613V31.9357H75.9125V35.9304H75.4613V34.1318H73.1549V35.9304H72.7037Z" fill="white"/>
<path d="M76.6152 35.9304L77.8656 34.3262C77.5661 34.2812 77.2881 34.1424 77.0721 33.9297C76.9723 33.8244 76.8945 33.7001 76.8437 33.5643C76.7928 33.4285 76.7697 33.284 76.7755 33.1391C76.7673 32.992 76.7904 32.845 76.8422 32.7073C76.8945 32.5697 76.9752 32.4444 77.0784 32.3396C77.2353 32.1974 77.4192 32.0882 77.6193 32.0187C77.8195 31.9491 78.0312 31.9206 78.2428 31.9348H79.9478V35.9295H79.4966V34.3993H78.3489L77.1609 35.9295L76.6152 35.9304ZM78.2712 34.0179H79.499V32.3391H78.2712C77.9971 32.3229 77.7254 32.4029 77.5037 32.5652C77.4134 32.6379 77.3409 32.7307 77.2929 32.8363C77.2449 32.9419 77.2224 33.0573 77.2267 33.1731C77.2233 33.2913 77.2478 33.4087 77.2987 33.5154C77.3496 33.6221 77.4254 33.7152 77.519 33.787C77.736 33.9481 78.0019 34.0296 78.2712 34.0179Z" fill="white"/>
</svg>
