<svg width="108" height="36" viewBox="0 0 108 36" fill="none" xmlns="http://www.w3.org/2000/svg">
<mask id="mask0_6_5538" style="mask-type:luminance" maskUnits="userSpaceOnUse" x="0" y="0" width="108" height="35">
<path d="M107.04 0H0.583832V34.6159H107.04V0Z" fill="white"/>
</mask>
<g mask="url(#mask0_6_5538)">
<path d="M8.00001 4.80077C7.87099 4.80077 7.74441 4.79112 7.61861 4.77866C7.58328 4.77505 7.54757 4.77183 7.51224 4.76701C7.40083 4.75281 7.29105 4.73379 7.18282 4.70995C7.13875 4.7003 7.0955 4.68906 7.05226 4.6778C7.00186 4.66495 6.95304 4.64726 6.90302 4.6328C6.71721 4.55078 6.52661 4.48033 6.3323 4.42183C5.4828 4.17426 4.58458 4.15267 3.72442 4.35915C3.69069 4.30531 3.72442 4.36478 3.72442 4.35915C2.79962 4.5776 1.95361 5.05363 1.28203 5.73341C1.13029 5.89608 0.995072 6.07377 0.878408 6.26385C0.686893 6.55737 0.584519 6.90134 0.583923 7.25313V24.3403H3.02869V7.92139C3.02869 7.92139 3.51487 6.17664 6.48153 6.61262C6.48153 6.61262 7.38643 6.74601 7.70985 6.76771C7.82261 6.77577 7.93569 6.78057 8.05041 6.78057C8.82585 6.7799 9.59093 6.59985 10.2872 6.25421V4.05697C9.62054 4.54099 8.82033 4.80115 8.00001 4.80077Z" fill="white"/>
<path d="M16.6804 4.17305C15.345 4.17739 14.0655 4.71645 13.1211 5.67254C12.1768 6.62865 11.6444 7.92417 11.6401 9.27633V19.3732C11.6401 20.727 12.1713 22.0254 13.1168 22.9827C14.0623 23.94 15.3447 24.4778 16.6818 24.4778C18.019 24.4778 19.3014 23.94 20.2469 22.9827C21.1924 22.0254 21.7236 20.727 21.7236 19.3732V9.27753C21.7193 7.92537 21.1869 6.62985 20.2426 5.67374C19.2983 4.71765 18.0187 4.17859 16.6832 4.17425M19.0677 21.8404C19.0666 22.2098 18.9213 22.5637 18.6633 22.8249C18.4053 23.0861 18.0557 23.2333 17.6909 23.2344H15.5109C15.146 23.2333 14.7964 23.0861 14.5385 22.8249C14.2805 22.5637 14.1351 22.2098 14.1341 21.8404V6.85205C14.1351 6.48269 14.2805 6.12873 14.5385 5.86757C14.7964 5.60635 15.146 5.45918 15.5109 5.45813H17.6909C18.0557 5.45918 18.4053 5.60635 18.6633 5.86757C18.9213 6.12873 19.0666 6.48269 19.0677 6.85205V21.8404Z" fill="white"/>
<path d="M31.5741 16.5434V21.8404C31.5731 22.2097 31.4277 22.5637 31.1697 22.8249C30.9117 23.0861 30.5622 23.2333 30.1974 23.2343H28.0173C27.6525 23.2333 27.3029 23.0861 27.0449 22.8249C26.787 22.5637 26.6416 22.2097 26.6405 21.8404V6.85202C26.6416 6.48266 26.787 6.12871 27.0449 5.86749C27.3029 5.60632 27.6525 5.45911 28.0173 5.45805H30.1974C30.5622 5.45911 30.9117 5.60632 31.1697 5.86749C31.4277 6.12871 31.5731 6.48266 31.5741 6.85202V11.8966H34.2288V9.27789C34.2288 7.9241 33.6977 6.62575 32.7522 5.66848C31.8067 4.71119 30.5244 4.1734 29.1873 4.1734C27.8502 4.1734 26.5678 4.71119 25.6224 5.66848C24.6769 6.62575 24.1458 7.9241 24.1458 9.27789V19.3727C24.1458 20.7265 24.6769 22.0249 25.6224 22.9821C26.5678 23.9394 27.8502 24.4772 29.1873 24.4772C30.5244 24.4772 31.8067 23.9394 32.7522 22.9821C33.6977 22.0249 34.2288 20.7265 34.2288 19.3727V16.5434H31.5741Z" fill="white"/>
<path d="M50.4135 7.67983C49.6892 7.68069 48.9735 7.83981 48.3155 8.14644C47.6572 8.45301 47.0723 8.89985 46.6004 9.45631C45.93 8.6659 45.0366 8.10237 44.0404 7.84164C43.0441 7.5809 41.9929 7.63548 41.0283 7.99807C40.0636 8.36062 39.2318 9.01375 38.6449 9.8695C38.058 10.7252 37.7441 11.7425 37.7456 12.7843V19.6271C37.749 20.7121 38.0925 21.7679 38.7264 22.6426C39.3604 23.5173 40.2522 24.1658 41.2735 24.4945V23.4413C40.9787 23.3634 40.7177 23.1889 40.5311 22.9452C40.3444 22.7014 40.2426 22.402 40.2416 22.0936V10.3608C40.2427 9.99151 40.3882 9.63761 40.6461 9.37644C40.9041 9.11527 41.2535 8.96806 41.6183 8.9669H43.7984C44.1632 8.96806 44.5127 9.11527 44.7707 9.37644C45.0286 9.63761 45.174 9.99151 45.1751 10.3608V19.1763H47.868V10.3608C47.8691 9.99146 48.0145 9.63751 48.2723 9.37634C48.5305 9.11517 48.8799 8.96796 49.2447 8.9669H51.4249C51.7897 8.96796 52.1391 9.11517 52.3974 9.37634C52.6551 9.63751 52.8006 9.99146 52.8015 10.3608V22.0944C52.8006 22.3921 52.706 22.6818 52.5313 22.9212C52.3566 23.1607 52.1108 23.3375 51.83 23.426V24.5246C52.8745 24.2122 53.7918 23.5668 54.4451 22.6845C55.0983 21.8021 55.4531 20.7299 55.4569 19.6271V12.7843C55.4526 11.4322 54.9198 10.1367 53.9756 9.18055C53.0315 8.22444 51.7518 7.68535 50.4164 7.68103" fill="white"/>
<path d="M107.04 11.7371V9.11796C107.04 7.76416 106.509 6.46586 105.564 5.50855C104.618 4.55129 103.335 4.0135 101.999 4.0135C100.661 4.0135 99.3792 4.55129 98.4336 5.50855C97.488 6.46586 96.9572 7.76416 96.9572 9.11796V19.2132C96.9572 20.567 97.488 21.8654 98.4336 22.8226C99.3792 23.7799 100.661 24.3177 101.999 24.3177C103.335 24.3177 104.618 23.7799 105.564 22.8226C106.509 21.8654 107.04 20.567 107.04 19.2132V16.3839H104.385V21.6801C104.384 22.0494 104.239 22.4034 103.981 22.6646C103.723 22.9257 103.373 23.0729 103.009 23.074H100.829C100.464 23.0729 100.115 22.9257 99.8563 22.6646C99.5986 22.4034 99.4532 22.0494 99.4522 21.6801V15.1326H103.895V13.3159H99.4522V6.69453C99.4532 6.32517 99.5986 5.97122 99.8563 5.71C100.115 5.44884 100.464 5.30162 100.829 5.30056H103.009C103.374 5.30162 103.723 5.44884 103.981 5.71C104.239 5.97122 104.385 6.32517 104.386 6.69453V11.7371H107.04Z" fill="white"/>
<path d="M87.1225 16.5001V21.7962C87.1234 22.1656 87.2689 22.5195 87.5266 22.7807C87.7849 23.0419 88.1343 23.1891 88.4991 23.1902H90.6783C91.0431 23.1891 91.393 23.0419 91.6508 22.7807C91.9085 22.5195 92.054 22.1656 92.0549 21.7962V17.1671C92.0549 16.7177 91.8797 16.2865 91.5668 15.9677C91.2538 15.649 90.829 15.4685 90.385 15.4657L88.1559 15.4517V13.2299L90.2079 13.2343C90.4503 13.2349 90.6903 13.187 90.9145 13.0935C91.1386 13 91.3421 12.8626 91.5135 12.6893C91.6853 12.516 91.8212 12.3102 91.9143 12.0835C92.0069 11.8569 92.0549 11.614 92.0549 11.3686V6.81064C92.0535 6.44128 91.9085 6.08733 91.6503 5.82616C91.3925 5.56495 91.0426 5.41778 90.6778 5.41672H88.4981C88.1333 5.41778 87.7834 5.56495 87.5257 5.82616C87.2674 6.08733 87.1225 6.44128 87.121 6.81064V11.8532H84.4666V9.31648C84.4873 8.04506 84.9591 6.82365 85.7962 5.87551C86.6329 4.92741 87.7791 4.31596 89.0247 4.15294C89.7241 4.0866 90.4292 4.16855 91.0954 4.39355C91.7617 4.61856 92.3741 4.9817 92.8945 5.45978C93.4143 5.93786 93.83 6.52039 94.1151 7.17026C94.4007 7.82008 94.549 8.52299 94.5509 9.23411V11.3429C94.5509 12.0219 94.3316 12.6821 93.926 13.2231C93.5209 13.7639 92.9516 14.1557 92.306 14.3386L92.5772 14.388C93.1306 14.4891 93.6313 14.7838 93.9922 15.2208C94.3527 15.6577 94.5505 16.2091 94.5505 16.7785V19.2474C94.5293 20.5185 94.0575 21.7396 93.2209 22.6876C92.3842 23.6356 91.2385 24.2472 89.9933 24.4105C89.294 24.4768 88.5889 24.3948 87.9231 24.1698C87.2569 23.9449 86.6444 23.5818 86.1241 23.1038C85.6042 22.6258 85.1885 22.0434 84.9034 21.3937C84.6183 20.7439 84.4695 20.0412 84.4676 19.3301V16.5001H87.1225Z" fill="white"/>
<path d="M66.6942 4.2334V21.8393C66.6932 22.2087 66.5478 22.5626 66.29 22.8238C66.0318 23.085 65.6823 23.2322 65.3175 23.2332H63.1374C62.7726 23.2322 62.4231 23.085 62.1654 22.8238C61.9071 22.5626 61.7617 22.2087 61.7607 21.8393V4.2334H59.2417C59.2177 5.58435 59.2657 8.97502 59.2657 9.27718V19.3728C59.27 20.725 59.8023 22.0205 60.7465 22.9766C61.6911 23.9327 62.9703 24.4718 64.3062 24.4761C65.1399 24.4767 65.9603 24.266 66.6932 23.8633V24.4452H69.3481V9.27718C69.3481 8.96576 69.4009 5.48672 69.3731 4.2334H66.6942Z" fill="white"/>
<path d="M76.6868 4.12963C75.3514 4.13397 74.0717 4.67303 73.1276 5.62913C72.1834 6.58524 71.6506 7.88076 71.6463 9.23292V19.3301C71.6463 20.684 72.1777 21.9824 73.1233 22.9397C74.0689 23.897 75.3509 24.4348 76.6882 24.4348C78.0255 24.4348 79.3076 23.897 80.2532 22.9397C81.1988 21.9824 81.7301 20.684 81.7301 19.3301V9.23412C81.7258 7.88196 81.1935 6.58644 80.2489 5.63037C79.3047 4.67424 78.025 4.13518 76.6897 4.13083M79.0748 21.7962C79.0738 22.1656 78.9284 22.5195 78.6706 22.7807C78.4124 23.0419 78.0629 23.1891 77.6981 23.1902H75.518C75.1532 23.1891 74.8037 23.0419 74.5455 22.7807C74.2877 22.5195 74.1423 22.1656 74.1413 21.7962V6.81065C74.1423 6.44129 74.2877 6.08733 74.5455 5.82617C74.8037 5.56495 75.1532 5.41778 75.518 5.41668H77.6981C78.0629 5.41778 78.4124 5.56495 78.6706 5.82617C78.9284 6.08733 79.0738 6.44129 79.0748 6.81065V21.7962Z" fill="white"/>
<path d="M81.7604 16.1019H79.0724V34.6155H81.7604V16.1019Z" fill="white"/>
<path d="M69.4216 34.6154V29.4459C69.423 29.0765 69.568 28.7226 69.8262 28.4613C70.084 28.2002 70.4339 28.053 70.7987 28.0519H77.6958C78.0606 28.053 78.41 28.2002 78.6683 28.4613C78.926 28.7226 79.0715 29.0765 79.0724 29.4459V34.6154H81.7288V31.0906C81.7254 30.0026 81.2972 28.9602 80.5374 28.1909C79.7776 27.4216 78.748 26.9881 77.6732 26.9851H70.7896C69.7148 26.9881 68.6852 27.4216 67.9254 28.1909C67.1656 28.9602 66.7374 30.0026 66.734 31.0906V34.6154H69.4216Z" fill="white"/>
<path d="M72.7576 33.547H68.4145C68.332 33.5467 68.2494 33.5388 68.1678 33.5233V34.6038C68.2571 34.6099 68.3464 34.6139 68.4366 34.6139H72.7576V33.547Z" fill="white"/>
<path d="M48.6116 1.07972L38.2512 6.72226L36.2668 5.64254L46.6309 0L48.6116 1.07972Z" fill="white"/>
<path d="M46.5715 0L56.932 5.64254L54.9476 6.72226L44.5887 1.07972L46.5715 0Z" fill="white"/>
</g>
<path d="M0 34.6154V28.5576H0.681898V31.2144H1.6659L4.18632 28.5576H5.07538L2.24421 31.474L5.20483 34.6154H4.29853L1.69179 31.8288H0.681898V34.6154H0Z" fill="white"/>
<path d="M6.11707 36V30.1412H6.78172V31.0412C7.15286 30.5134 7.66214 30.0461 8.49076 30.0461C9.56106 30.0461 10.6228 30.8941 10.6228 32.3653V32.3826C10.6228 33.8365 9.56971 34.7105 8.49076 34.7105C7.66214 34.7105 7.12699 34.2692 6.78172 33.7586V36H6.11707ZM8.3699 34.1134C9.23308 34.1134 9.94089 33.473 9.94089 32.3913V32.374C9.94089 31.3095 9.22444 30.6432 8.3699 30.6432C7.54127 30.6432 6.7558 31.3528 6.7558 32.3653V32.3826C6.7558 33.4211 7.54127 34.1134 8.3699 34.1134Z" fill="white"/>
<path d="M13.1782 34.7106C12.3495 34.7106 11.5123 34.2432 11.5123 33.3173V33.2999C11.5123 32.3653 12.2891 31.8548 13.4198 31.8548C13.9981 31.8548 14.3866 31.9326 14.7923 32.0451V31.8894C14.7923 31.0846 14.3003 30.6692 13.463 30.6692C12.9365 30.6692 12.5221 30.799 12.1079 30.998L11.9093 30.4528C12.4013 30.2192 12.876 30.0807 13.5321 30.0807C14.1622 30.0807 14.6455 30.2451 14.9735 30.574C15.2756 30.8769 15.431 31.3182 15.431 31.8807V34.6154H14.7923V33.9404C14.4815 34.3471 13.9723 34.7106 13.1782 34.7106ZM13.3076 34.1827C14.1363 34.1827 14.8009 33.6807 14.8009 32.9711V32.5384C14.4643 32.4432 14.0413 32.348 13.4889 32.348C12.6516 32.348 12.1855 32.7115 12.1855 33.274V33.2913C12.1855 33.8538 12.7121 34.1827 13.3076 34.1827Z" fill="white"/>
<path d="M18.8587 34.7192C17.5467 34.7192 16.5713 33.6547 16.5713 32.3999V32.3826C16.5713 31.1105 17.5467 30.0461 18.8587 30.0461C19.7046 30.0461 20.2224 30.3922 20.6454 30.8422L20.2052 31.3095C19.8513 30.9374 19.4629 30.6345 18.85 30.6345C17.9437 30.6345 17.2532 31.3961 17.2532 32.3653V32.3826C17.2532 33.3519 17.961 34.1221 18.8932 34.1221C19.4715 34.1221 19.9031 33.8365 20.257 33.4557L20.6799 33.8538C20.2311 34.3644 19.6959 34.7192 18.8587 34.7192Z" fill="white"/>
<path d="M21.7787 34.6154V30.1413H22.4433V32.0538H25.1105V30.1413H25.7665V34.6154H25.1105V32.6596H22.4433V34.6154H21.7787Z" fill="white"/>
<path d="M29.2947 34.7192C27.9568 34.7192 26.9815 33.6634 26.9815 32.3999V32.3826C26.9815 31.1105 27.9568 30.0461 29.312 30.0461C30.6585 30.0461 31.6339 31.1018 31.6339 32.3653V32.3826C31.6339 33.6547 30.6413 34.7192 29.2947 34.7192ZM29.312 34.1221C30.2787 34.1221 30.952 33.3346 30.952 32.3999V32.3826C30.952 31.422 30.2356 30.6345 29.2947 30.6345C28.328 30.6345 27.6634 31.422 27.6634 32.3653V32.3826C27.6634 33.3432 28.3712 34.1221 29.312 34.1221Z" fill="white"/>
<path d="M35.002 30.1066L36.7456 34.0096H37.2548V35.8009H36.6506V34.6154H32.6628V35.8009H32.0586V34.0096H32.5679L34.3115 30.1066H35.002ZM34.6567 30.773L33.2498 34.0269H36.0378L34.6567 30.773Z" fill="white"/>
<path d="M39.4945 34.7106C38.6658 34.7106 37.8286 34.2432 37.8286 33.3173V33.2999C37.8286 32.3653 38.6054 31.8548 39.7361 31.8548C40.3145 31.8548 40.7029 31.9326 41.1086 32.0451V31.8894C41.1086 31.0846 40.6166 30.6692 39.7793 30.6692C39.2528 30.6692 38.8385 30.799 38.4242 30.998L38.2256 30.4528C38.7176 30.2192 39.1924 30.0807 39.8484 30.0807C40.4785 30.0807 40.9618 30.2451 41.2898 30.574C41.5919 30.8769 41.7473 31.3182 41.7473 31.8807V34.6154H41.1086V33.9404C40.7978 34.3471 40.2886 34.7106 39.4945 34.7106ZM39.6239 34.1827C40.4525 34.1827 41.1172 33.6807 41.1172 32.9711V32.5384C40.7806 32.4432 40.3576 32.348 39.8052 32.348C38.968 32.348 38.5018 32.7115 38.5018 33.274V33.2913C38.5018 33.8538 39.0283 34.1827 39.6239 34.1827Z" fill="white"/>
<path d="M43.1638 36V30.1412H43.8284V31.0412C44.1996 30.5134 44.7088 30.0461 45.5375 30.0461C46.6078 30.0461 47.6695 30.8941 47.6695 32.3653V32.3826C47.6695 33.8365 46.6164 34.7105 45.5375 34.7105C44.7088 34.7105 44.1737 34.2692 43.8284 33.7586V36H43.1638ZM45.4166 34.1134C46.2798 34.1134 46.9876 33.473 46.9876 32.3913V32.374C46.9876 31.3095 46.2712 30.6432 45.4166 30.6432C44.588 30.6432 43.8025 31.3528 43.8025 32.3653V32.3826C43.8025 33.4211 44.588 34.1134 45.4166 34.1134Z" fill="white"/>
</svg>
