<svg width="108" height="36" viewBox="0 0 108 36" fill="none" xmlns="http://www.w3.org/2000/svg">
<mask id="mask0_6_5515" style="mask-type:luminance" maskUnits="userSpaceOnUse" x="0" y="0" width="108" height="36">
<path d="M107.04 0H0.848907V35.8921H107.04V0Z" fill="white"/>
</mask>
<g mask="url(#mask0_6_5515)">
<path d="M8.24653 4.97775C8.11789 4.97775 7.9916 4.96777 7.86608 4.95486C7.83085 4.95112 7.79523 4.94776 7.76 4.94276C7.64888 4.92808 7.53935 4.90835 7.43139 4.88363C7.38747 4.87359 7.34432 4.86193 7.30117 4.85027C7.25087 4.83692 7.20219 4.81863 7.15227 4.80361C6.96695 4.71857 6.77682 4.64552 6.58299 4.58487C5.7356 4.32818 4.83963 4.30579 3.98161 4.51988C3.94797 4.46405 3.98161 4.52571 3.98161 4.51988C3.05912 4.74639 2.21522 5.23998 1.54531 5.94481C1.39395 6.11348 1.25907 6.29775 1.14269 6.49479C0.951658 6.79916 0.849533 7.1558 0.848938 7.52055V25.2376H3.28762V8.21343C3.28762 8.21343 3.77258 6.40436 6.73184 6.85643C6.73184 6.85643 7.63448 6.99476 7.95714 7.01727C8.06955 7.02558 8.1824 7.03057 8.29683 7.03057C9.07035 7.02985 9.8335 6.84318 10.5281 6.48476V4.20656C9.86307 4.70843 9.06483 4.97814 8.24653 4.97775Z" fill="white"/>
<path d="M16.9054 4.32686C15.5732 4.33137 14.2969 4.89031 13.3549 5.88166C12.4129 6.873 11.8818 8.21628 11.8776 9.61826V20.0874C11.8776 21.4911 12.4074 22.8374 13.3506 23.83C14.2937 24.8226 15.5729 25.3803 16.9067 25.3803C18.2405 25.3803 19.5197 24.8226 20.4629 23.83C21.406 22.8374 21.9359 21.4911 21.9359 20.0874V9.61951C21.9316 8.21753 21.4006 6.87425 20.4586 5.8829C19.5166 4.89156 18.2403 4.33261 16.9081 4.32811M19.2867 22.6456C19.2856 23.0286 19.1405 23.3956 18.8832 23.6664C18.6259 23.9372 18.2772 24.0898 17.9133 24.0909H15.7387C15.3747 24.0898 15.026 23.9372 14.7687 23.6664C14.5114 23.3956 14.3664 23.0286 14.3653 22.6456V7.10465C14.3664 6.72166 14.5114 6.35465 14.7687 6.08383C15.026 5.81301 15.3747 5.66038 15.7387 5.65932H17.9133C18.2772 5.66038 18.6259 5.81301 18.8832 6.08383C19.1405 6.35465 19.2856 6.72166 19.2867 7.10465V22.6456Z" fill="white"/>
<path d="M31.7619 17.1534V22.6456C31.7609 23.0286 31.6158 23.3956 31.3585 23.6664C31.1012 23.9373 30.7525 24.0899 30.3886 24.091H28.2139C27.8501 24.0899 27.5013 23.9373 27.244 23.6664C26.9867 23.3956 26.8417 23.0286 26.8406 22.6456V7.10471C26.8417 6.72172 26.9867 6.35471 27.244 6.08389C27.5013 5.81308 27.8501 5.66044 28.2139 5.65933H30.3886C30.7525 5.66044 31.1012 5.81308 31.3585 6.08389C31.6158 6.35471 31.7609 6.72172 31.7619 7.10471V12.3353H34.41V9.62C34.41 8.21629 33.8802 6.87008 32.9371 5.87754C31.9939 4.88495 30.7148 4.32733 29.3811 4.32733C28.0473 4.32733 26.7681 4.88495 25.825 5.87754C24.8819 6.87008 24.3521 8.21629 24.3521 9.62V20.087C24.3521 21.4907 24.8819 22.8369 25.825 23.8295C26.7681 24.8221 28.0473 25.3797 29.3811 25.3797C30.7148 25.3797 31.9939 24.8221 32.9371 23.8295C33.8802 22.8369 34.41 21.4907 34.41 20.087V17.1534H31.7619Z" fill="white"/>
<path d="M50.5546 7.96304C49.8317 7.9639 49.1179 8.12892 48.4613 8.44683C47.805 8.76473 47.2214 9.22803 46.7507 9.80504C46.0821 8.98544 45.1909 8.40113 44.1971 8.1308C43.2034 7.86046 42.1548 7.91705 41.1925 8.29299C40.2302 8.66892 39.4005 9.34611 38.8151 10.2334C38.2296 11.1207 37.9165 12.1755 37.918 13.2557V20.3508C37.9214 21.4758 38.264 22.5705 38.8964 23.4775C39.5288 24.3845 40.4184 25.0568 41.4371 25.3976V24.3056C41.1431 24.2248 40.8827 24.0439 40.6965 23.7912C40.5103 23.5384 40.4088 23.2279 40.4077 22.9082V10.7429C40.4089 10.3599 40.554 9.993 40.8113 9.72224C41.0686 9.45142 41.4172 9.29873 41.7811 9.29753H43.9557C44.3196 9.29873 44.6683 9.45142 44.9256 9.72224C45.1829 9.993 45.3279 10.3599 45.3291 10.7429V19.8833H48.0154V10.7429C48.0163 10.3599 48.1613 9.99291 48.4186 9.72209C48.6758 9.45128 49.0248 9.29864 49.3886 9.29753H51.563C51.9269 9.29864 52.2758 9.45128 52.5331 9.72209C52.7904 9.99291 52.9354 10.3599 52.9363 10.7429V22.909C52.9354 23.2177 52.8408 23.5181 52.6666 23.7664C52.4923 24.0147 52.2475 24.198 51.9672 24.2898V25.4289C53.0093 25.1049 53.9242 24.4357 54.576 23.5208C55.2278 22.606 55.5816 21.4942 55.585 20.3508V13.2557C55.5806 11.8537 55.0498 10.5104 54.1075 9.51905C53.1658 8.52771 51.8894 7.9688 50.557 7.96428" fill="white"/>
<path d="M107.04 12.1699V9.45419C107.04 8.05047 106.51 6.70427 105.567 5.71167C104.624 4.71912 103.345 4.1615 102.011 4.1615C100.677 4.1615 99.398 4.71912 98.4552 5.71167C97.512 6.70427 96.9821 8.05047 96.9821 9.45419V19.9216C96.9821 21.3253 97.512 22.6715 98.4552 23.6641C99.398 24.6566 100.677 25.2143 102.011 25.2143C103.345 25.2143 104.624 24.6566 105.567 23.6641C106.51 22.6715 107.04 21.3253 107.04 19.9216V16.988H104.392V22.4794C104.391 22.8624 104.246 23.2294 103.989 23.5002C103.731 23.771 103.382 23.9236 103.019 23.9247H100.844C100.48 23.9236 100.132 23.771 99.8746 23.5002C99.6173 23.2294 99.4719 22.8624 99.4709 22.4794V15.6905H103.902V13.8069H99.4709V6.94139C99.4719 6.55839 99.6173 6.19139 99.8746 5.92057C100.132 5.64975 100.48 5.49711 100.844 5.49601H103.019C103.383 5.49711 103.731 5.64975 103.989 5.92057C104.246 6.19139 104.391 6.55839 104.392 6.94139V12.1699H107.04Z" fill="white"/>
<path d="M87.1719 17.1084V22.5998C87.1728 22.9828 87.3178 23.3498 87.5751 23.6206C87.8323 23.8915 88.1813 24.0441 88.5451 24.0452H90.7191C91.0829 24.0441 91.4319 23.8915 91.6891 23.6206C91.9464 23.3498 92.0914 22.9828 92.0923 22.5998V17.8001C92.0923 17.3341 91.9171 16.887 91.6051 16.5565C91.2931 16.226 90.8693 16.0388 90.4263 16.036L88.2029 16.0214V13.7178L90.2501 13.7223C90.4915 13.7229 90.7311 13.6733 90.9547 13.5763C91.1779 13.4793 91.381 13.3369 91.5523 13.1572C91.7232 12.9775 91.8591 12.7641 91.9517 12.5291C92.0443 12.2941 92.0919 12.0422 92.0919 11.7878V7.06179C92.0909 6.6788 91.9459 6.31184 91.6887 6.04103C91.4314 5.77021 91.0824 5.61757 90.7186 5.61647H88.5442C88.1803 5.61757 87.8314 5.77021 87.5741 6.04103C87.3168 6.31184 87.1719 6.6788 87.1709 7.06179V12.2903H84.5227V9.66003C84.5434 8.34171 85.0138 7.07528 85.849 6.09219C86.6837 5.10915 87.8271 4.47515 89.0693 4.30611C89.7667 4.23733 90.4704 4.3223 91.1352 4.5556C91.7995 4.7889 92.4106 5.16541 92.9295 5.66111C93.4479 6.1568 93.8631 6.76083 94.1472 7.43466C94.4319 8.10848 94.5797 8.83727 94.5816 9.57459V11.7612C94.5816 12.4652 94.3627 13.1498 93.9586 13.7106C93.5544 14.2714 92.9866 14.6777 92.3424 14.8673L92.6131 14.9185C93.1651 15.0233 93.6648 15.329 94.0243 15.782C94.3843 16.2351 94.5811 16.8067 94.5811 17.3972V19.957C94.5605 21.2751 94.0896 22.5412 93.2554 23.5242C92.4207 24.5071 91.2778 25.1412 90.0355 25.3105C89.3381 25.3793 88.6349 25.2943 87.9706 25.061C87.3058 24.8277 86.6947 24.4513 86.1763 23.9557C85.6575 23.46 85.2427 22.8561 84.9586 22.1825C84.6739 21.5088 84.5256 20.7801 84.5237 20.0429V17.1084H87.1719Z" fill="white"/>
<path d="M66.7949 4.38943V22.6444C66.7935 23.0274 66.6485 23.3944 66.3912 23.6652C66.134 23.9361 65.7855 24.0886 65.4212 24.0897H63.2468C62.8829 24.0886 62.534 23.9361 62.2767 23.6652C62.0194 23.3944 61.8744 23.0274 61.8735 22.6444V4.38943H59.3607C59.3367 5.79023 59.3842 9.30589 59.3842 9.61919V20.087C59.3885 21.489 59.9199 22.8323 60.8616 23.8236C61.8039 24.815 63.0802 25.3739 64.4122 25.3785C65.244 25.3791 66.0624 25.1606 66.7935 24.7431V25.3464H69.4416V9.61919C69.4416 9.29629 69.4944 5.68895 69.4666 4.38943H66.7949Z" fill="white"/>
<path d="M76.7626 4.28192C75.4301 4.28643 74.1538 4.84535 73.2121 5.8367C72.2698 6.82809 71.7389 8.17137 71.7346 9.57335V20.0429C71.7346 21.4466 72.2645 22.7929 73.2077 23.7855C74.1509 24.7781 75.4301 25.3357 76.7636 25.3357C78.0975 25.3357 79.3767 24.7781 80.3199 23.7855C81.2631 22.7929 81.793 21.4466 81.793 20.0429V9.5746C81.7887 8.17262 81.2578 6.82934 80.3156 5.838C79.3738 4.8466 78.0975 4.28768 76.765 4.28317M79.1444 22.5998C79.1434 22.9828 78.9985 23.3498 78.7412 23.6206C78.4839 23.8914 78.1349 24.0441 77.7711 24.0452H75.5967C75.2329 24.0441 74.8839 23.8914 74.6266 23.6206C74.3693 23.3498 74.2244 22.9828 74.2234 22.5998V7.0618C74.2244 6.67881 74.3693 6.3118 74.6266 6.04099C74.8839 5.77017 75.2329 5.61753 75.5967 5.61643H77.7711C78.1349 5.61753 78.4839 5.77017 78.7412 6.04099C78.9985 6.3118 79.1434 6.67881 79.1444 7.0618V22.5998Z" fill="white"/>
<path d="M81.8232 16.6955H79.142V35.8917H81.8232V16.6955Z" fill="white"/>
<path d="M69.5151 35.8917V30.5315C69.5165 30.1485 69.6615 29.7815 69.9188 29.5107C70.176 29.2399 70.5245 29.0872 70.8888 29.0861H77.7687C78.1325 29.0872 78.4815 29.2399 78.7388 29.5107C78.996 29.7815 79.141 30.1485 79.142 30.5315V35.8917H81.7916V32.2369C81.7882 31.1088 81.361 30.0279 80.6031 29.2303C79.8452 28.4327 78.818 27.9831 77.7461 27.98H70.8797C69.8079 27.9831 68.7807 28.4327 68.0228 29.2303C67.2648 30.0279 66.8376 31.1088 66.8343 32.2369V35.8917H69.5151Z" fill="white"/>
<path d="M72.8424 34.7838H68.5104C68.4279 34.7835 68.3458 34.7752 68.2647 34.7592V35.8796C68.3535 35.8858 68.4428 35.89 68.5325 35.89H72.8424V34.7838Z" fill="white"/>
<path d="M48.757 1.11953L38.4224 6.97008L36.443 5.85058L46.7812 0L48.757 1.11953Z" fill="white"/>
<path d="M46.7218 0L57.0567 5.85058L55.0771 6.97008L44.744 1.11953L46.7218 0Z" fill="white"/>
</g>
<path d="M3.02214 36C1.28291 36 0 34.5733 0 32.7697V32.7518C0 30.9751 1.28291 29.5035 3.04797 29.5035C4.14145 29.5035 4.80442 29.8983 5.39851 30.4995L4.93358 31.02C4.41697 30.5175 3.86593 30.1585 3.03936 30.1585C1.7048 30.1585 0.706027 31.2892 0.706027 32.7338V32.7518C0.706027 34.2054 1.7048 35.345 3.03936 35.345C3.86593 35.345 4.40837 35.013 4.98523 34.4387L5.43298 34.8963C4.81306 35.5603 4.10701 36 3.02214 36Z" fill="white"/>
<path d="M8.49314 36C7.1586 36 6.18564 34.9053 6.18564 33.5952V33.5773C6.18564 32.2582 7.1586 31.1546 8.51037 31.1546C9.85356 31.1546 10.8265 32.2493 10.8265 33.5593V33.5773C10.8265 34.8963 9.83633 36 8.49314 36ZM8.51037 35.3808C9.47469 35.3808 10.1463 34.5643 10.1463 33.5952V33.5773C10.1463 32.5813 9.43164 31.7647 8.49314 31.7647C7.52882 31.7647 6.86585 32.5813 6.86585 33.5593V33.5773C6.86585 34.5733 7.57188 35.3808 8.51037 35.3808Z" fill="white"/>
<path d="M14.8959 35.8923V34.2592C14.5429 34.3579 14.0607 34.4566 13.6216 34.4566C12.4851 34.4566 11.8134 33.9452 11.8134 32.7249V31.2533H12.4678V32.671C12.4678 33.4965 12.8639 33.8195 13.6991 33.8195C14.1209 33.8195 14.5084 33.7478 14.8959 33.6311V31.2533H15.5588V35.8923H14.8959Z" fill="white"/>
<path d="M17.0388 35.8923V31.2533H17.7018V34.8514L20.4053 31.2533H21.0425V35.8923H20.3881V32.2852L17.6587 35.8923H17.0388Z" fill="white"/>
</svg>
