<svg width="30" height="30" viewBox="0 0 30 30" fill="none" xmlns="http://www.w3.org/2000/svg">
<path d="M15 30C23.2843 30 30 23.2843 30 15C30 6.71573 23.2843 0 15 0C6.71573 0 0 6.71573 0 15C0 23.2843 6.71573 30 15 30Z" fill="#449F4B"/>
<path d="M15 8C18.8661 8 22 11.1339 22 15C22 18.8661 18.8661 22 15 22C13.763 22.002 12.5477 21.6746 11.479 21.0515L8.00281 22L8.94921 18.5224C8.32557 17.4534 7.99794 16.2376 8.00001 15C8.00001 11.1339 11.1339 8 15 8ZM12.6144 11.71L12.4744 11.7156C12.3838 11.7211 12.2952 11.7449 12.214 11.7856C12.1381 11.8286 12.0688 11.8824 12.0082 11.9452C11.9242 12.0243 11.8766 12.0929 11.8255 12.1594C11.5666 12.496 11.4272 12.9093 11.4293 13.334C11.4307 13.677 11.5203 14.0109 11.6603 14.3231C11.9466 14.9545 12.4177 15.623 13.0393 16.2425C13.1891 16.3916 13.3361 16.5414 13.4943 16.6807C14.2667 17.3607 15.1871 17.8511 16.1823 18.1129L16.5799 18.1738C16.7094 18.1808 16.8389 18.171 16.9691 18.1647C17.173 18.1542 17.372 18.099 17.5522 18.003C17.6439 17.9558 17.7333 17.9044 17.8203 17.849C17.8203 17.849 17.8504 17.8294 17.9078 17.786C18.0023 17.716 18.0604 17.6663 18.1388 17.5844C18.1969 17.5242 18.2473 17.4535 18.2858 17.373C18.3404 17.2589 18.395 17.0412 18.4174 16.8599C18.4342 16.7213 18.4293 16.6457 18.4272 16.5988C18.4244 16.5239 18.3621 16.4462 18.2942 16.4133L17.8868 16.2306C17.8868 16.2306 17.2778 15.9653 16.9054 15.7959C16.8664 15.7789 16.8247 15.7692 16.7822 15.7672C16.7343 15.7623 16.6859 15.7677 16.6403 15.783C16.5946 15.7983 16.5528 15.8233 16.5176 15.8561C16.5141 15.8547 16.4672 15.8946 15.9611 16.5078C15.9321 16.5468 15.892 16.5763 15.8462 16.5925C15.8003 16.6087 15.7506 16.6109 15.7035 16.5988C15.6579 16.5866 15.6132 16.5711 15.5698 16.5526C15.483 16.5162 15.4529 16.5022 15.3934 16.477C14.9917 16.3017 14.6197 16.0648 14.2909 15.7749C14.2027 15.6979 14.1208 15.6139 14.0368 15.5327C13.7614 15.269 13.5214 14.9706 13.3228 14.6451L13.2815 14.5786C13.2518 14.5339 13.2279 14.4857 13.2101 14.4351C13.1835 14.3322 13.2528 14.2496 13.2528 14.2496C13.2528 14.2496 13.4229 14.0634 13.502 13.9626C13.579 13.8646 13.6441 13.7694 13.6861 13.7015C13.7687 13.5685 13.7946 13.432 13.7512 13.3263C13.5552 12.8475 13.3522 12.3708 13.1436 11.8976C13.1023 11.8038 12.9798 11.7366 12.8685 11.7233C12.8307 11.7191 12.7929 11.7149 12.7551 11.7121C12.6611 11.7074 12.5669 11.7084 12.473 11.7149L12.6144 11.71Z" fill="white"/>
</svg>
