<svg width="158" height="40" viewBox="0 0 158 40" fill="none" xmlns="http://www.w3.org/2000/svg">
<mask id="mask0_6_7140" style="mask-type:luminance" maskUnits="userSpaceOnUse" x="0" y="0" width="50" height="40">
<path d="M49.4359 0H9.15527e-05V40H49.4359V0Z" fill="white"/>
</mask>
<g mask="url(#mask0_6_7140)">
<path d="M49.436 38.7145C48.3815 39.0397 47.3115 39.306 46.2305 39.5124C41.5973 40.1496 36.8899 39.7836 32.3947 38.4367C30.3782 37.8442 28.4103 37.0542 26.3788 36.5275C21.9169 35.3721 17.5665 35.9956 13.3424 37.7652C11.9491 38.3484 10.5994 39.0476 9.22664 39.6848C8.97943 39.8072 8.72009 39.8999 8.45342 39.9613C7.6914 40.1154 7.3135 39.7843 7.29794 38.962C7.27428 37.6072 7.283 36.251 7.23569 34.8968C7.08938 30.7112 6.91195 26.5269 6.77001 22.3399C6.70153 20.3037 6.68721 18.2655 6.6455 16.2286C6.63989 16.016 6.59134 15.806 6.549 15.4847C6.14732 15.5824 5.75116 15.704 5.3624 15.8488C4.10109 16.4031 2.85597 16.9956 1.60399 17.5598C1.33878 17.6789 1.05427 17.7494 0.78097 17.8468C0.383776 17.9883 0.191404 17.808 0.177085 17.3978C0.136618 16.2451 0.108601 15.0897 0.0774723 13.9357C0.084771 13.8638 0.0833088 13.7912 0.0731168 13.7197C-0.202678 12.7908 0.343305 12.4564 1.03061 12.1891C2.54842 11.5966 4.05813 10.9824 5.57531 10.3827C6.77935 9.90605 6.84347 9.79677 6.85904 8.46826C6.8827 6.33726 6.91444 4.20559 6.96549 2.07458C6.97732 1.59137 7.09997 1.11145 7.13919 0.626262C7.1672 0.293148 7.34899 0.19769 7.61358 0.188473C9.47255 0.12264 11.3315 0.0633914 13.2671 -0.00244141L13.7415 6.39585C14.077 6.27669 14.3703 6.19835 14.6417 6.07063C17.894 4.53453 21.1433 2.99361 24.3898 1.44785C24.5853 1.33772 24.806 1.28733 25.0271 1.30233C25.2483 1.31733 25.4611 1.39712 25.6417 1.53278C26.7798 2.33067 27.9197 3.12527 29.0527 3.93304C32.6636 6.50623 36.2745 9.07919 39.8853 11.6519C40.0535 11.7567 40.1977 11.8997 40.3075 12.0704C40.4173 12.2411 40.49 12.4355 40.5203 12.6394C40.8003 14.0547 40.8699 15.5076 40.7264 16.9455C40.685 17.15 40.6314 17.3514 40.5658 17.5486C39.7446 16.9311 38.9932 16.3392 38.2156 15.7908C37.458 15.2543 36.6723 14.7619 35.8991 14.2497L35.7272 14.3669V22.2899C35.2813 22.1745 34.8457 22.0181 34.4255 21.8224C34.3071 21.7494 34.2046 21.6508 34.1246 21.5331C34.0447 21.4153 33.9892 21.2811 33.9616 21.1391C33.8247 19.2135 33.7369 17.2839 33.6336 15.3563C33.5956 14.6322 33.5551 13.9139 33.5227 13.1931C33.5094 12.8928 33.4243 12.601 33.2754 12.3449C33.1265 12.0889 32.9185 11.8769 32.6711 11.729C31.3766 10.8573 30.0746 9.99843 28.7651 9.15226C27.7479 8.49394 26.7076 7.86984 25.6971 7.19769C25.539 7.09108 25.3566 7.03151 25.1692 7.02526C24.9817 7.019 24.7961 7.06629 24.6319 7.16214C23.3538 7.75793 22.0732 8.35042 20.8019 8.96398C18.0577 10.2892 15.3234 11.6361 12.5748 12.9488C12.376 13.0128 12.2058 13.1507 12.0958 13.3371C11.9858 13.5235 11.9434 13.7457 11.9765 13.9627C12.134 17.6236 12.2598 21.2866 12.3911 24.9495C12.4671 27.097 12.5385 29.2442 12.6053 31.3912C12.6283 32.1351 12.764 32.2629 13.4414 32.0779C15.9937 31.3436 18.6075 30.8735 21.2458 30.6743C24.7723 30.4261 28.2972 31.1839 31.4521 32.8685C33.585 34.0028 35.6818 35.2155 37.8408 36.2918C40.766 37.7098 43.9421 38.4565 47.16 38.4827C47.907 38.5012 48.6541 38.486 49.4012 38.486L49.436 38.7145Z" fill="white"/>
<path d="M19.7113 16.7005C20.4628 16.7005 21.2154 16.6959 21.9669 16.7005C22.7183 16.7051 23.0097 17.0152 23.0134 17.825C23.0175 18.5298 23.0186 19.2344 23.0165 19.9388C23.0165 20.4741 22.8179 20.7229 22.3261 20.7335C20.807 20.7631 19.288 20.7894 17.7683 20.7677C17.643 20.7484 17.524 20.6972 17.4215 20.6186C17.319 20.5399 17.2361 20.4361 17.18 20.3161C16.9086 19.372 16.6894 18.4069 16.4952 17.4405C16.4061 16.9974 16.6788 16.7552 17.251 16.74C18.0696 16.7183 18.8895 16.7341 19.7095 16.7341L19.7113 16.7005Z" fill="#F6DD00"/>
<path d="M19.6251 21.3742C20.3766 21.3742 21.128 21.3847 21.8794 21.3696C22.2996 21.3617 22.5157 21.5203 22.5082 21.9963C22.4939 22.9357 22.4995 23.8752 22.5082 24.8133C22.522 24.9175 22.5136 25.0238 22.4836 25.1241C22.4536 25.2245 22.4027 25.3165 22.3347 25.3935C22.2668 25.4704 22.1834 25.5303 22.0907 25.5687C21.9981 25.6072 21.8984 25.6233 21.7991 25.6158C20.5359 25.6421 19.2721 25.6586 18.0102 25.6112C17.8758 25.5809 17.7506 25.5161 17.6455 25.4225C17.5404 25.329 17.4587 25.2095 17.4076 25.0746C17.1797 24.0055 17.0309 22.918 16.8572 21.8376C16.795 21.4426 16.9699 21.3472 17.3229 21.3597C18.0905 21.3873 18.8594 21.3676 19.6264 21.3676L19.6251 21.3742Z" fill="#F6DD00"/>
<path d="M29.27 21.4159C29.2189 21.9807 29.1735 22.4606 29.133 22.9419C29.0832 23.5528 29.0496 24.1657 28.9867 24.7746C28.8989 25.6199 28.7476 25.7654 27.9539 25.7556C27.3232 25.749 26.6919 25.6897 26.0613 25.6818C25.5159 25.6752 24.9687 25.7022 24.4239 25.7279C24.0896 25.7437 23.8493 25.668 23.8537 25.2407C23.868 24.0867 23.8636 22.9326 23.9004 21.7799C23.9261 21.6952 23.9718 21.6187 24.0331 21.5577C24.0944 21.4967 24.1693 21.4531 24.2509 21.431C25.8876 21.408 27.5249 21.4159 29.27 21.4159Z" fill="#F6DD00"/>
<path d="M26.5019 16.4207C27.201 16.4207 27.9008 16.4161 28.5999 16.4207C29.169 16.4253 29.4217 16.6564 29.436 17.2614C29.4566 18.1087 29.436 18.9566 29.423 19.8039C29.4167 20.1679 29.2524 20.345 28.877 20.3457C27.3947 20.3503 25.9111 20.3845 24.4281 20.3997C24.0447 20.4043 23.8448 20.2265 23.856 19.7762C23.8791 18.8381 23.871 17.9 23.8591 16.9619C23.8535 16.5484 23.998 16.3806 24.4045 16.3957C25.103 16.4234 25.8034 16.4036 26.5025 16.4036L26.5019 16.4207Z" fill="#F6DD00"/>
</g>
<path d="M60.9101 19.0825C60.8196 18.7893 60.6947 18.5269 60.5355 18.2953C60.3799 18.0601 60.1917 17.8592 59.9709 17.6927C59.7538 17.5262 59.504 17.4014 59.2217 17.3181C58.9394 17.2313 58.6318 17.1878 58.2989 17.1878C57.7017 17.1878 57.1697 17.338 56.7028 17.6384C56.2359 17.9388 55.8686 18.3804 55.6008 18.963C55.3366 19.5421 55.2045 20.2478 55.2045 21.0803C55.2045 21.9199 55.3366 22.6311 55.6008 23.2137C55.865 23.7964 56.2323 24.2398 56.7028 24.5438C57.1733 24.8442 57.7198 24.9944 58.3423 24.9944C58.9069 24.9944 59.3955 24.8858 59.808 24.6687C60.2243 24.4515 60.5445 24.1439 60.7689 23.7458C60.9933 23.344 61.1055 22.8735 61.1055 22.3343L61.5615 22.4049H58.5432V20.8305H63.0544V22.166C63.0544 23.1178 62.8518 23.9412 62.4464 24.6361C62.0411 25.331 61.4837 25.8666 60.7744 26.243C60.065 26.6158 59.2507 26.8022 58.3314 26.8022C57.3072 26.8022 56.4078 26.5723 55.6333 26.1127C54.8625 25.6494 54.2599 24.9926 53.8256 24.1421C53.3949 23.2879 53.1795 22.2746 53.1795 21.102C53.1795 20.2044 53.3062 19.4028 53.5596 18.697C53.8165 17.9913 54.1748 17.3923 54.6345 16.9001C55.0941 16.4043 55.6333 16.0279 56.2522 15.7709C56.8711 15.5104 57.5443 15.3801 58.2717 15.3801C58.887 15.3801 59.4606 15.4705 59.9926 15.6515C60.5246 15.8288 60.9969 16.0822 61.4095 16.4115C61.8257 16.7409 62.1677 17.1317 62.4356 17.5841C62.7034 18.0365 62.8789 18.536 62.9622 19.0825H60.9101ZM74.9366 21.0911C74.9366 22.2891 74.7122 23.3151 74.2634 24.1692C73.8183 25.0197 73.2103 25.6712 72.4394 26.1236C71.6721 26.576 70.8017 26.8022 69.8282 26.8022C68.8546 26.8022 67.9824 26.576 67.2115 26.1236C66.4442 25.6675 65.8362 25.0143 65.3874 24.1638C64.9423 23.3097 64.7197 22.2854 64.7197 21.0911C64.7197 19.8932 64.9423 18.8689 65.3874 18.0184C65.8362 17.1643 66.4442 16.5111 67.2115 16.0587C67.9824 15.6063 68.8546 15.3801 69.8282 15.3801C70.8017 15.3801 71.6721 15.6063 72.4394 16.0587C73.2103 16.5111 73.8183 17.1643 74.2634 18.0184C74.7122 18.8689 74.9366 19.8932 74.9366 21.0911ZM72.9117 21.0911C72.9117 20.2478 72.7796 19.5367 72.5154 18.9576C72.2548 18.3749 71.8929 17.9352 71.4296 17.6384C70.9664 17.338 70.4326 17.1878 69.8282 17.1878C69.2238 17.1878 68.6899 17.338 68.2267 17.6384C67.7634 17.9352 67.3997 18.3749 67.1355 18.9576C66.8749 19.5367 66.7446 20.2478 66.7446 21.0911C66.7446 21.9344 66.8749 22.6473 67.1355 23.23C67.3997 23.8091 67.7634 24.2488 68.2267 24.5492C68.6899 24.846 69.2238 24.9944 69.8282 24.9944C70.4326 24.9944 70.9664 24.846 71.4296 24.5492C71.8929 24.2488 72.2548 23.8091 72.5154 23.23C72.7796 22.6473 72.9117 21.9344 72.9117 21.0911ZM82.8829 18.5885C82.8323 18.1143 82.6187 17.7452 82.2424 17.481C81.8696 17.2168 81.3846 17.0847 80.7874 17.0847C80.3676 17.0847 80.0075 17.148 79.7071 17.2747C79.4067 17.4014 79.1769 17.5733 79.0177 17.7904C78.8584 18.0076 78.777 18.2555 78.7734 18.5342C78.7734 18.7658 78.8259 18.9667 78.9308 19.1368C79.0394 19.3069 79.186 19.4516 79.3705 19.5711C79.5551 19.6869 79.7596 19.7846 79.984 19.8642C80.2084 19.9438 80.4346 20.0108 80.6626 20.0651L81.7049 20.3257C82.1247 20.4234 82.5283 20.5555 82.9155 20.722C83.3064 20.8884 83.6556 21.0983 83.9633 21.3517C84.2745 21.605 84.5206 21.9108 84.7016 22.2691C84.8825 22.6274 84.973 23.0473 84.973 23.5286C84.973 24.1801 84.8065 24.7537 84.4736 25.2495C84.1406 25.7417 83.6593 26.1272 83.0295 26.4059C82.4034 26.6809 81.6452 26.8184 80.7549 26.8184C79.8899 26.8184 79.1389 26.6845 78.5019 26.4167C77.8686 26.1489 77.3728 25.758 77.0145 25.2441C76.6598 24.7302 76.468 24.1041 76.439 23.3658H78.4205C78.4495 23.753 78.5689 24.0751 78.7788 24.3321C78.9887 24.589 79.262 24.7808 79.5986 24.9075C79.9388 25.0342 80.3188 25.0975 80.7386 25.0975C81.1765 25.0975 81.5601 25.0324 81.8895 24.9021C82.2224 24.7682 82.483 24.5836 82.6712 24.3484C82.8594 24.1095 82.9553 23.8308 82.9589 23.5123C82.9553 23.2228 82.8703 22.9839 82.7038 22.7957C82.5373 22.6039 82.3039 22.4447 82.0035 22.318C81.7067 22.1877 81.3593 22.0719 80.9612 21.9706L79.6963 21.6448C78.7806 21.4096 78.0568 21.0531 77.5248 20.5754C76.9964 20.094 76.7322 19.4552 76.7322 18.659C76.7322 18.004 76.9095 17.4303 77.2642 16.9381C77.6225 16.4459 78.1093 16.0641 78.7245 15.7926C79.3398 15.5176 80.0365 15.3801 80.8146 15.3801C81.6036 15.3801 82.2948 15.5176 82.8884 15.7926C83.4855 16.0641 83.9542 16.4423 84.2944 16.9273C84.6346 17.4086 84.8102 17.9623 84.821 18.5885H82.8829ZM86.28 17.2204V15.5321H95.1506V17.2204H91.7142V26.6501H89.7164V17.2204H86.28ZM98.8747 15.5321V26.6501H96.8606V15.5321H98.8747ZM112.296 19.0825C112.205 18.7893 112.081 18.5269 111.921 18.2953C111.766 18.0601 111.578 17.8592 111.357 17.6927C111.14 17.5262 110.89 17.4014 110.608 17.3181C110.325 17.2313 110.018 17.1878 109.685 17.1878C109.088 17.1878 108.555 17.338 108.089 17.6384C107.622 17.9388 107.254 18.3804 106.987 18.963C106.722 19.5421 106.59 20.2478 106.59 21.0803C106.59 21.9199 106.722 22.6311 106.987 23.2137C107.251 23.7964 107.618 24.2398 108.089 24.5438C108.559 24.8442 109.106 24.9944 109.728 24.9944C110.293 24.9944 110.781 24.8858 111.194 24.6687C111.61 24.4515 111.93 24.1439 112.155 23.7458C112.379 23.344 112.491 22.8735 112.491 22.3343L112.947 22.4049H109.929V20.8305H114.44V22.166C114.44 23.1178 114.238 23.9412 113.832 24.6361C113.427 25.331 112.87 25.8666 112.16 26.243C111.451 26.6158 110.637 26.8022 109.717 26.8022C108.693 26.8022 107.794 26.5723 107.019 26.1127C106.248 25.6494 105.646 24.9926 105.211 24.1421C104.781 23.2879 104.565 22.2746 104.565 21.102C104.565 20.2044 104.692 19.4028 104.945 18.697C105.202 17.9913 105.561 17.3923 106.02 16.9001C106.48 16.4043 107.019 16.0279 107.638 15.7709C108.257 15.5104 108.93 15.3801 109.658 15.3801C110.273 15.3801 110.846 15.4705 111.378 15.6515C111.91 15.8288 112.383 16.0822 112.795 16.4115C113.212 16.7409 113.554 17.1317 113.821 17.5841C114.089 18.0365 114.265 18.536 114.348 19.0825H112.296ZM116.388 26.6501V15.5321H120.557C121.411 15.5321 122.128 15.6805 122.707 15.9772C123.29 16.274 123.729 16.6902 124.026 17.2258C124.326 17.7579 124.477 18.3785 124.477 19.0879C124.477 19.8009 124.325 20.4198 124.021 20.9445C123.72 21.4657 123.277 21.8692 122.691 22.1551C122.104 22.4374 121.384 22.5786 120.53 22.5786H117.56V20.9065H120.259C120.758 20.9065 121.167 20.8378 121.485 20.7002C121.804 20.5591 122.039 20.3546 122.191 20.0868C122.347 19.8154 122.425 19.4824 122.425 19.0879C122.425 18.6934 122.347 18.3568 122.191 18.0782C122.036 17.7959 121.798 17.5823 121.48 17.4376C121.162 17.2892 120.751 17.215 120.248 17.215H118.402V26.6501H116.388ZM122.131 21.6123L124.884 26.6501H122.636L119.933 21.6123H122.131ZM136.265 21.0911C136.265 22.2891 136.041 23.3151 135.592 24.1692C135.147 25.0197 134.539 25.6712 133.768 26.1236C133.001 26.576 132.13 26.8022 131.157 26.8022C130.183 26.8022 129.311 26.576 128.54 26.1236C127.773 25.6675 127.165 25.0143 126.716 24.1638C126.271 23.3097 126.048 22.2854 126.048 21.0911C126.048 19.8932 126.271 18.8689 126.716 18.0184C127.165 17.1643 127.773 16.5111 128.54 16.0587C129.311 15.6063 130.183 15.3801 131.157 15.3801C132.13 15.3801 133.001 15.6063 133.768 16.0587C134.539 16.5111 135.147 17.1643 135.592 18.0184C136.041 18.8689 136.265 19.8932 136.265 21.0911ZM134.24 21.0911C134.24 20.2478 134.108 19.5367 133.844 18.9576C133.583 18.3749 133.221 17.9352 132.758 17.6384C132.295 17.338 131.761 17.1878 131.157 17.1878C130.552 17.1878 130.019 17.338 129.555 17.6384C129.092 17.9352 128.728 18.3749 128.464 18.9576C128.203 19.5367 128.073 20.2478 128.073 21.0911C128.073 21.9344 128.203 22.6473 128.464 23.23C128.728 23.8091 129.092 24.2488 129.555 24.5492C130.019 24.846 130.552 24.9944 131.157 24.9944C131.761 24.9944 132.295 24.846 132.758 24.5492C133.221 24.2488 133.583 23.8091 133.844 23.23C134.108 22.6473 134.24 21.9344 134.24 21.0911ZM145.178 15.5321H147.192V22.7957C147.192 23.592 147.004 24.2923 146.627 24.8967C146.255 25.5011 145.73 25.9734 145.053 26.3136C144.376 26.6501 143.585 26.8184 142.681 26.8184C141.772 26.8184 140.98 26.6501 140.303 26.3136C139.626 25.9734 139.101 25.5011 138.728 24.8967C138.356 24.2923 138.169 23.592 138.169 22.7957V15.5321H140.183V22.6274C140.183 23.0907 140.285 23.5033 140.487 23.8652C140.694 24.2271 140.983 24.5112 141.356 24.7175C141.729 24.9202 142.17 25.0215 142.681 25.0215C143.191 25.0215 143.632 24.9202 144.005 24.7175C144.382 24.5112 144.671 24.2271 144.874 23.8652C145.077 23.5033 145.178 23.0907 145.178 22.6274V15.5321ZM149.381 26.6501V15.5321H153.55C154.404 15.5321 155.121 15.6913 155.7 16.0098C156.283 16.3283 156.723 16.7662 157.019 17.3236C157.32 17.8773 157.47 18.507 157.47 19.2128C157.47 19.9257 157.32 20.5591 157.019 21.1128C156.719 21.6666 156.276 22.1027 155.689 22.4212C155.103 22.736 154.381 22.8935 153.523 22.8935H150.76V21.2377H153.252C153.751 21.2377 154.16 21.1508 154.479 20.9771C154.797 20.8034 155.032 20.5645 155.184 20.2605C155.34 19.9565 155.418 19.6072 155.418 19.2128C155.418 18.8183 155.34 18.4708 155.184 18.1704C155.032 17.8701 154.795 17.6366 154.473 17.4701C154.155 17.3 153.744 17.215 153.241 17.215H151.395V26.6501H149.381Z" fill="white"/>
</svg>
