<svg width="12" height="12" viewBox="0 0 12 12" fill="none" xmlns="http://www.w3.org/2000/svg">
<path fill-rule="evenodd" clip-rule="evenodd" d="M12.0001 6C12.0001 9.31373 9.31383 12 6.00009 12C2.68638 12 9.15527e-05 9.31373 9.15527e-05 6C9.15527e-05 2.68629 2.68638 0 6.00009 0C9.31383 0 12.0001 2.68629 12.0001 6ZM6.50009 2.60311C6.50009 2.32697 6.27622 2.10311 6.00009 2.10311C5.72396 2.10311 5.50009 2.32697 5.50009 2.60311V6.21893V6.48127L5.71589 6.63033L8.15943 8.3182C8.38663 8.47513 8.69803 8.41813 8.85503 8.19093C9.01196 7.96373 8.95496 7.65233 8.72776 7.4954L6.50009 5.9566V2.60311Z" fill="white"/>
</svg>
